<svg width="200" height="140" viewBox="0 0 200 140" fill="none" xmlns="http://www.w3.org/2000/svg">
<path d="M95.9016 51.1914C98.1656 48.9275 98.1656 45.2586 95.9016 42.9885L87.7109 34.7855C85.447 32.5216 85.447 28.8526 87.7109 26.5826L112.105 2.17003C99.7301 -2.41921 85.2691 0.268069 75.3482 10.2564C61.8136 23.883 61.8443 45.7985 75.4218 59.3821C77.5447 61.505 79.87 63.2965 82.3425 64.7567L95.9016 51.1914Z" fill="white"/>
<path d="M104.097 26.5944L112.288 34.7973C114.552 37.0613 114.552 40.7302 112.288 43.0003L87.8937 67.4128C100.269 72.0021 114.73 69.3148 124.651 59.3264C138.185 45.6998 138.154 23.7844 124.577 10.2007C122.454 8.0779 120.129 6.28638 117.656 4.82617L104.091 18.4037C101.833 20.6554 101.833 24.3304 104.097 26.5944Z" fill="white"/>
<path d="M2.46641 93.8981C4.08 91.7139 6.51574 90.6279 9.77361 90.6279H27.6152V95.8184H10.9945C10.062 95.8184 9.28278 96.0209 8.66311 96.432C8.0373 96.8369 7.54034 97.3216 7.17835 97.8738C6.81637 98.426 6.55868 99.0027 6.41757 99.5978C6.27032 100.193 6.1967 100.665 6.1967 101.015H27.5722V103.635C27.5722 107.942 26.7624 111.181 25.1488 113.366C23.5352 115.55 21.0995 116.636 17.8416 116.636H0V111.445H16.6206C17.4612 111.445 18.1668 111.286 18.7373 110.967C19.3018 110.648 19.7742 110.23 20.1546 109.721C20.535 109.212 20.8172 108.654 21.0074 108.04C21.1976 107.427 21.3326 106.819 21.4246 106.206H0.0429474V103.635C0.0429474 99.3217 0.852813 96.0761 2.46641 93.8981Z" fill="white"/>
<path d="M63.4897 91.1237C65.2076 91.4611 66.6065 91.9765 67.6986 92.6698C68.7907 93.3692 69.5883 94.2711 70.0975 95.3755C70.6067 96.4799 70.8583 97.8051 70.8583 99.3451V116.622H64.7966V100.818C64.7966 100.063 64.6861 99.3757 64.4714 98.7499C64.2505 98.1241 63.8701 97.5965 63.318 97.1609C62.7658 96.7253 61.9989 96.394 61.0295 96.1608C60.0539 95.9277 58.8085 95.8111 57.2992 95.8111H55.9494V116.622H49.8815V95.8111H48.5318C47.0163 95.8111 45.777 95.9277 44.8015 96.1608C43.826 96.394 43.0652 96.7253 42.513 97.1609C41.9608 97.5965 41.5743 98.1241 41.3596 98.7499C41.1387 99.3757 41.0344 100.063 41.0344 100.818V116.622H34.9727V99.3451C34.9727 97.8051 35.2242 96.4799 35.7334 95.3755C36.2427 94.2711 37.0403 93.3692 38.1324 92.6698C39.2245 91.9704 40.6233 91.455 42.3412 91.1237C44.0591 90.7924 46.1206 90.6206 48.5379 90.6206H57.3053C59.7104 90.6206 61.7718 90.7924 63.4897 91.1237Z" fill="white"/>
<path d="M103.953 107.812C103.953 109.296 103.72 110.591 103.254 111.695C102.787 112.8 101.996 113.726 100.879 114.468C99.7626 115.211 98.2779 115.763 96.4373 116.125C94.5905 116.487 92.3082 116.671 89.578 116.671C86.9336 116.671 84.731 116.475 82.9579 116.082C81.1848 115.689 79.7737 115.125 78.7123 114.382C77.6508 113.64 76.8962 112.726 76.4483 111.634C76.0004 110.542 75.7734 109.315 75.7734 107.947V99.3509C75.7734 97.9582 76.0127 96.7127 76.4913 95.6206C76.9698 94.5285 77.7552 93.6144 78.8411 92.872C79.9271 92.1296 81.375 91.5651 83.1727 91.1725C84.9703 90.7798 87.2097 90.5835 89.8786 90.5835C92.6088 90.5835 94.8728 90.7614 96.6704 91.105C98.4681 91.4547 99.9099 91.9824 100.984 92.7002C102.057 93.4119 102.818 94.3138 103.272 95.4059C103.72 96.498 103.947 97.768 103.947 99.2221V107.812H103.953ZM89.9031 95.7679C86.9398 95.7679 84.8476 96.1851 83.6451 97.0256C82.4364 97.8662 81.8352 99.0073 81.8352 100.455V106.486C81.8352 107.241 81.9579 107.928 82.2033 108.548C82.4487 109.167 82.8659 109.695 83.4488 110.131C84.0316 110.566 84.8231 110.898 85.8293 111.131C86.8355 111.364 88.0871 111.48 89.6025 111.48C91.3204 111.48 92.7131 111.395 93.7929 111.223C94.8666 111.051 95.7133 110.763 96.3207 110.358C96.9342 109.953 97.3453 109.419 97.5662 108.75C97.7871 108.088 97.8914 107.259 97.8914 106.278V100.468C97.8914 99.8295 97.7993 99.2221 97.6091 98.6453C97.4189 98.0686 97.0447 97.5655 96.4741 97.1483C95.9096 96.7311 95.0998 96.3937 94.0506 96.1482C93.0015 95.8906 91.621 95.7679 89.9031 95.7679Z" fill="white"/>
<path d="M108.859 116.622V90.6206H126.744C130.002 90.6206 132.438 91.7127 134.051 93.8907C135.665 96.0749 136.475 99.3144 136.475 103.621V116.622H130.413V102.4C130.413 101.762 130.339 101.063 130.192 100.308C130.045 99.5537 129.793 98.842 129.431 98.1732C129.069 97.5045 128.56 96.9461 127.904 96.4921C127.247 96.0442 126.425 95.8172 125.437 95.8172H114.921V116.628H108.859V116.622Z" fill="white"/>
<path d="M147.77 107.505C147.892 108.088 148.15 108.671 148.512 109.247C148.874 109.83 149.383 110.339 150.04 110.775C150.696 111.211 151.543 111.431 152.592 111.431H167.121V116.622H151.114C147.856 116.622 145.42 115.518 143.806 113.309C142.193 111.1 141.383 107.873 141.383 103.627C141.383 99.3203 142.193 96.0808 143.806 93.8966C145.42 91.7124 147.856 90.6265 151.114 90.6265H167.121V95.817H152.592C151.635 95.817 150.825 96.0133 150.169 96.406C149.512 96.7986 148.997 97.2649 148.623 97.8048C148.242 98.3447 147.972 98.9092 147.813 99.5043C147.813 99.4982 146.8 102.879 147.77 107.505Z" fill="white"/>
<path d="M200 103.621C200 107.928 199.19 111.168 197.577 113.352C195.963 115.536 193.527 116.622 190.269 116.622H177.704V111.432H189.048C189.864 111.432 190.558 111.272 191.141 110.953C191.723 110.634 192.202 110.229 192.582 109.732C192.963 109.235 193.245 108.677 193.435 108.051C193.625 107.425 193.748 106.806 193.803 106.198H182.109C178.851 106.198 176.416 105.106 174.802 102.928C173.189 100.75 172.379 97.5045 172.379 93.1974V90.6206H178.44V94.4184C178.44 95.0565 178.514 95.7559 178.661 96.5105C178.809 97.2652 179.06 97.9769 179.422 98.6456C179.784 99.3144 180.287 99.8727 180.925 100.327C181.563 100.781 182.392 101.002 183.41 101.002H193.926V90.6206H199.988V103.621H200Z" fill="white"/>
<path d="M167.116 101.007H152.605V106.198H167.116V101.007Z" fill="white"/>
<path d="M15.7801 136.556L13.0438 132.58H13.9457L16.1605 135.869L18.3938 132.58H19.2589L16.5225 136.55V139.163H15.7801V136.556Z" fill="white"/>
<path d="M25.7703 139.273C25.2672 139.273 24.8132 139.181 24.4022 139.003C23.9911 138.819 23.6414 138.574 23.3469 138.267C23.0524 137.954 22.8254 137.598 22.6659 137.187C22.5063 136.776 22.4266 136.347 22.4266 135.893V135.874C22.4266 135.42 22.5063 134.991 22.672 134.574C22.8377 134.163 23.0647 133.801 23.3592 133.488C23.6537 133.175 24.0095 132.929 24.4206 132.745C24.8316 132.561 25.2918 132.469 25.7949 132.469C26.298 132.469 26.752 132.561 27.1631 132.739C27.5741 132.923 27.9239 133.169 28.2183 133.475C28.5128 133.788 28.7399 134.144 28.8994 134.555C29.0589 134.966 29.1387 135.396 29.1387 135.85C29.1448 135.856 29.1448 135.862 29.1387 135.868C29.1387 136.322 29.0589 136.752 28.8932 137.169C28.7276 137.586 28.5006 137.942 28.2061 138.255C27.9116 138.568 27.5557 138.813 27.1447 138.997C26.7275 139.181 26.2734 139.273 25.7703 139.273ZM25.7888 138.586C26.163 138.586 26.5127 138.513 26.8256 138.378C27.1447 138.236 27.4146 138.046 27.6416 137.801C27.8686 137.555 28.0466 137.273 28.1754 136.948C28.3042 136.623 28.3656 136.273 28.3656 135.893V135.874C28.3656 135.5 28.3042 135.144 28.1754 134.819C28.0466 134.488 27.8686 134.206 27.6355 133.96C27.4023 133.715 27.1263 133.518 26.8134 133.377C26.4943 133.236 26.1507 133.163 25.7765 133.163C25.4022 133.163 25.0525 133.236 24.7396 133.377C24.4206 133.518 24.1506 133.709 23.9236 133.954C23.6966 134.199 23.5187 134.482 23.3898 134.807C23.261 135.132 23.1996 135.482 23.1996 135.862V135.88C23.1996 136.255 23.261 136.611 23.3898 136.936C23.5187 137.267 23.6966 137.549 23.9297 137.795C24.1629 138.04 24.439 138.236 24.7519 138.378C25.0648 138.519 25.4145 138.586 25.7888 138.586Z" fill="white"/>
<path d="M35.5926 139.268C35.1877 139.268 34.8134 139.207 34.476 139.084C34.1386 138.962 33.8502 138.778 33.6109 138.538C33.3716 138.299 33.1814 137.998 33.0526 137.642C32.9238 137.287 32.8563 136.876 32.8563 136.409V132.581H33.5986V136.36C33.5986 137.078 33.7766 137.624 34.1324 138.004C34.4883 138.385 34.9791 138.575 35.611 138.575C36.2184 138.575 36.7031 138.391 37.059 138.029C37.4148 137.667 37.5928 137.121 37.5928 136.403V132.575H38.3351V136.348C38.3351 136.833 38.2676 137.256 38.1388 137.618C38.01 137.98 37.8198 138.287 37.5805 138.532C37.3412 138.778 37.0528 138.962 36.7154 139.084C36.3841 139.207 36.0098 139.268 35.5926 139.268Z" fill="white"/>
<path d="M42.3602 132.581H45.1886C45.5935 132.581 45.9555 132.636 46.2745 132.752C46.5936 132.869 46.8512 133.028 47.0598 133.237C47.2255 133.403 47.3482 133.593 47.4341 133.808C47.52 134.029 47.5629 134.268 47.5629 134.532V134.55C47.5629 134.826 47.52 135.072 47.4341 135.286C47.3482 135.501 47.2194 135.691 47.0598 135.851C46.9003 136.01 46.7101 136.145 46.4893 136.243C46.2684 136.348 46.0291 136.421 45.7776 136.464L47.8022 139.152H46.8881L44.98 136.593H44.9616H43.1026V139.152H42.3602V132.581ZM45.1272 135.937C45.3726 135.937 45.5996 135.906 45.8082 135.845C46.0168 135.783 46.1948 135.691 46.3482 135.575C46.5015 135.458 46.6181 135.317 46.704 135.151C46.7899 134.986 46.8328 134.795 46.8328 134.581V134.562C46.8328 134.157 46.6856 133.838 46.3911 133.605C46.0966 133.378 45.6794 133.262 45.1456 133.262H43.1087V135.93H45.1272V135.937Z" fill="white"/>
<path d="M56.4882 132.58H61.2185V133.267H57.2305V135.629H60.7952V136.298H57.2305V139.163H56.4882V132.58Z" fill="white"/>
<path d="M64.9813 132.581H65.7236V139.164H64.9813V132.581Z" fill="white"/>
<path d="M69.9061 132.58H70.5994L74.7469 137.856V132.58H75.4709V139.163H74.8757L70.6239 133.764V139.163H69.9V132.58H69.9061Z" fill="white"/>
<path d="M82.0283 132.532H82.7216L85.7218 139.164H84.9242L84.1512 137.422H80.5681L79.7889 139.164H79.0281L82.0283 132.532ZM83.8628 136.753L82.3658 133.397L80.8626 136.753H83.8628Z" fill="white"/>
<path d="M89.2804 132.581H89.9737L94.1212 137.857V132.581H94.8451V139.164H94.25L89.9982 133.765V139.164H89.2742V132.581H89.2804Z" fill="white"/>
<path d="M101.976 139.274C101.497 139.274 101.061 139.188 100.656 139.01C100.258 138.832 99.9079 138.593 99.6134 138.292C99.319 137.985 99.0858 137.63 98.9202 137.212C98.7545 136.801 98.6686 136.36 98.6686 135.887V135.869C98.6686 135.402 98.7545 134.967 98.9202 134.55C99.0858 134.139 99.319 133.777 99.6134 133.464C99.9079 133.151 100.258 132.912 100.669 132.727C101.08 132.543 101.522 132.458 102.006 132.458C102.307 132.458 102.577 132.482 102.822 132.531C103.062 132.58 103.289 132.654 103.497 132.746C103.706 132.838 103.896 132.948 104.068 133.077C104.246 133.206 104.411 133.347 104.577 133.507L104.068 134.053C103.785 133.789 103.485 133.574 103.16 133.402C102.835 133.231 102.448 133.151 102 133.151C101.638 133.151 101.301 133.218 100.988 133.359C100.675 133.501 100.405 133.691 100.178 133.93C99.9509 134.169 99.773 134.464 99.6441 134.789C99.5153 135.12 99.4539 135.47 99.4539 135.844V135.863C99.4539 136.243 99.5153 136.599 99.6441 136.93C99.773 137.261 99.9509 137.544 100.178 137.789C100.405 138.035 100.675 138.225 100.988 138.366C101.301 138.507 101.632 138.574 102 138.574C102.454 138.574 102.841 138.489 103.166 138.323C103.491 138.157 103.81 137.924 104.123 137.623L104.614 138.102C104.442 138.28 104.27 138.433 104.08 138.574C103.896 138.716 103.693 138.838 103.485 138.936C103.27 139.035 103.043 139.114 102.798 139.17C102.552 139.249 102.276 139.274 101.976 139.274Z" fill="white"/>
<path d="M108.165 132.581H112.926V133.249H108.913V135.513H112.509V136.182H108.913V138.495H112.975V139.164H108.171V132.581H108.165Z" fill="white"/>
<path d="M124.063 139.255C123.535 139.255 123.057 139.169 122.621 138.998C122.185 138.826 121.768 138.562 121.376 138.2L121.836 137.654C122.179 137.967 122.529 138.2 122.879 138.353C123.228 138.507 123.633 138.587 124.094 138.587C124.541 138.587 124.897 138.482 125.161 138.274C125.425 138.065 125.56 137.795 125.56 137.47V137.452C125.56 137.298 125.535 137.163 125.486 137.04C125.437 136.918 125.345 136.807 125.222 136.709C125.094 136.611 124.922 136.519 124.701 136.439C124.48 136.359 124.192 136.28 123.848 136.206C123.474 136.126 123.143 136.028 122.86 135.924C122.578 135.819 122.351 135.691 122.167 135.537C121.983 135.384 121.848 135.212 121.762 135.01C121.676 134.807 121.627 134.574 121.627 134.304V134.286C121.627 134.028 121.682 133.789 121.787 133.574C121.891 133.353 122.044 133.163 122.241 133.003C122.437 132.844 122.664 132.721 122.928 132.629C123.192 132.537 123.48 132.494 123.793 132.494C124.278 132.494 124.695 132.562 125.057 132.697C125.419 132.832 125.769 133.034 126.106 133.304L125.67 133.881C125.364 133.629 125.057 133.445 124.744 133.335C124.431 133.224 124.112 133.163 123.768 133.163C123.333 133.163 122.995 133.267 122.744 133.47C122.492 133.672 122.37 133.924 122.37 134.224V134.243C122.37 134.402 122.394 134.537 122.443 134.66C122.492 134.783 122.584 134.893 122.713 134.997C122.842 135.102 123.026 135.194 123.259 135.28C123.492 135.365 123.787 135.445 124.155 135.519C124.891 135.685 125.431 135.905 125.775 136.194C126.124 136.482 126.296 136.875 126.296 137.378V137.396C126.296 137.679 126.241 137.936 126.13 138.163C126.02 138.39 125.867 138.587 125.67 138.752C125.474 138.918 125.241 139.041 124.965 139.126C124.695 139.212 124.394 139.255 124.063 139.255Z" fill="white"/>
<path d="M133.13 139.273C132.627 139.273 132.173 139.181 131.762 139.003C131.35 138.819 131.001 138.574 130.706 138.267C130.412 137.954 130.185 137.598 130.025 137.187C129.866 136.776 129.786 136.347 129.786 135.893V135.874C129.786 135.42 129.866 134.991 130.031 134.574C130.197 134.156 130.424 133.801 130.719 133.488C131.013 133.175 131.369 132.929 131.78 132.745C132.191 132.561 132.651 132.469 133.154 132.469C133.657 132.469 134.111 132.561 134.522 132.739C134.934 132.923 135.283 133.169 135.578 133.475C135.872 133.788 136.099 134.144 136.259 134.555C136.418 134.966 136.498 135.396 136.498 135.85C136.504 135.856 136.504 135.862 136.498 135.868C136.498 136.322 136.418 136.752 136.253 137.169C136.087 137.58 135.86 137.942 135.565 138.255C135.271 138.568 134.915 138.813 134.504 138.997C134.087 139.181 133.633 139.273 133.13 139.273ZM133.148 138.586C133.522 138.586 133.872 138.513 134.185 138.378C134.504 138.236 134.774 138.046 135.001 137.801C135.228 137.555 135.406 137.273 135.535 136.948C135.664 136.623 135.725 136.273 135.725 135.893V135.874C135.725 135.5 135.664 135.144 135.535 134.819C135.406 134.488 135.228 134.206 134.995 133.96C134.762 133.715 134.486 133.518 134.173 133.377C133.854 133.236 133.51 133.163 133.136 133.163C132.762 133.163 132.412 133.236 132.099 133.377C131.78 133.518 131.51 133.709 131.283 133.954C131.056 134.199 130.878 134.482 130.749 134.807C130.62 135.132 130.559 135.482 130.559 135.862V135.88C130.559 136.255 130.62 136.611 130.749 136.936C130.878 137.267 131.056 137.549 131.289 137.795C131.522 138.04 131.798 138.236 132.111 138.378C132.424 138.519 132.774 138.586 133.148 138.586Z" fill="white"/>
<path d="M140.329 132.581H141.071V138.477H144.777V139.164H140.329V132.581Z" fill="white"/>
<path d="M151.034 139.268C150.629 139.268 150.255 139.207 149.917 139.084C149.58 138.961 149.291 138.777 149.052 138.538C148.813 138.298 148.623 137.998 148.494 137.642C148.365 137.286 148.297 136.875 148.297 136.409V132.58H149.04V136.36C149.04 137.078 149.218 137.624 149.574 138.004C149.929 138.384 150.42 138.575 151.052 138.575C151.66 138.575 152.144 138.391 152.5 138.029C152.856 137.667 153.034 137.121 153.034 136.403V132.574H153.776V136.347C153.776 136.832 153.709 137.255 153.58 137.617C153.451 137.979 153.261 138.286 153.022 138.532C152.782 138.777 152.494 138.961 152.157 139.084C151.825 139.207 151.451 139.268 151.034 139.268Z" fill="white"/>
<path d="M159.537 133.267H157.329V132.58H162.495V133.267H160.286V139.163H159.544V133.267H159.537Z" fill="white"/>
<path d="M166.213 132.58H166.955V139.163H166.213V132.58Z" fill="white"/>
<path d="M174.201 139.274C173.698 139.274 173.244 139.182 172.833 139.004C172.422 138.82 172.072 138.574 171.777 138.268C171.483 137.955 171.256 137.599 171.096 137.188C170.937 136.777 170.857 136.347 170.857 135.893V135.875C170.857 135.421 170.937 134.991 171.103 134.574C171.268 134.163 171.495 133.801 171.79 133.488C172.084 133.175 172.44 132.93 172.851 132.746C173.262 132.562 173.722 132.47 174.225 132.47C174.729 132.47 175.183 132.562 175.594 132.74C176.005 132.924 176.354 133.169 176.649 133.476C176.943 133.789 177.17 134.145 177.33 134.556C177.489 134.967 177.569 135.396 177.569 135.85C177.575 135.856 177.575 135.863 177.569 135.869C177.569 136.323 177.489 136.752 177.324 137.169C177.158 137.58 176.931 137.942 176.637 138.255C176.342 138.568 175.986 138.814 175.575 138.998C175.158 139.182 174.698 139.274 174.201 139.274ZM174.219 138.587C174.594 138.587 174.943 138.513 175.256 138.378C175.575 138.237 175.845 138.047 176.072 137.801C176.299 137.556 176.477 137.274 176.606 136.949C176.735 136.623 176.796 136.274 176.796 135.893V135.875C176.796 135.501 176.735 135.145 176.606 134.82C176.477 134.488 176.299 134.206 176.066 133.961C175.833 133.715 175.557 133.519 175.244 133.378C174.925 133.237 174.581 133.163 174.207 133.163C173.833 133.163 173.483 133.237 173.17 133.378C172.851 133.519 172.581 133.709 172.354 133.954C172.127 134.2 171.949 134.482 171.82 134.807C171.692 135.132 171.63 135.482 171.63 135.863V135.881C171.63 136.255 171.692 136.611 171.82 136.936C171.949 137.268 172.127 137.55 172.36 137.795C172.593 138.041 172.869 138.237 173.182 138.378C173.495 138.519 173.839 138.587 174.219 138.587Z" fill="white"/>
<path d="M181.39 132.581H182.083L186.231 137.857V132.581H186.954V139.164H186.359L182.108 133.765V139.164H181.384V132.581H181.39Z" fill="white"/>
</svg>
