<svg width="390" height="253" viewBox="0 0 390 253" fill="none" xmlns="http://www.w3.org/2000/svg">
<rect width="390" height="252.353" rx="10" fill="url(#paint0_linear)"/>
<g opacity="0.5">
<mask id="mask0" mask-type="alpha" maskUnits="userSpaceOnUse" x="0" y="0" width="390" height="253">
<rect width="390" height="252.353" rx="10" fill="url(#paint1_linear)"/>
</mask>
<g mask="url(#mask0)">
<circle opacity="0.25" cx="344.118" cy="222.071" r="91.7647" fill="white"/>
<circle opacity="0.25" cx="390" cy="121.129" r="91.7647" fill="white"/>
</g>
</g>
<path d="M67.3137 28.6863C64.2917 25.6643 60.2738 24 56 24C51.7262 24 47.7083 25.6643 44.6863 28.6863C41.6643 31.7083 40 35.7262 40 40C40 44.2738 41.6643 48.2917 44.6863 51.3137C47.7082 54.3358 51.7262 56 56 56C60.2738 56 64.2917 54.3357 67.3137 51.3137C70.3357 48.2917 72 44.2738 72 40C72 35.7262 70.3357 31.7083 67.3137 28.6863ZM56 39C58.4813 39 60.5 41.0187 60.5 43.5C60.5 45.5548 59.1152 47.2912 57.2301 47.8277C57.0947 47.8663 57 47.9881 57 48.1289V48.9718C57 49.5103 56.5862 49.9736 56.0483 49.9989C55.474 50.0259 55 49.5683 55 49V48.1287C55 47.9882 54.9059 47.8664 54.7708 47.8279C52.8938 47.2942 51.5126 45.5709 51.5001 43.5279C51.4968 42.9826 51.9255 42.5161 52.4706 42.5004C53.0363 42.4842 53.5 42.9379 53.5 43.5C53.5 44.9376 54.7198 46.0957 56.1787 45.9937C57.4102 45.9077 58.4077 44.9101 58.4937 43.6786C58.5956 42.2196 57.4376 41 56 41C53.5187 41 51.5 38.9813 51.5 36.5C51.5 34.4452 52.8848 32.7088 54.7699 32.1723C54.9053 32.1337 55 32.0119 55 31.8711V31.0283C55 30.4898 55.4138 30.0264 55.9517 30.0011C56.526 29.9741 57 30.4317 57 31V31.8713C57 32.0118 57.0941 32.1336 57.2292 32.1721C59.1062 32.7058 60.4874 34.4291 60.4999 36.4721C60.5033 37.0174 60.0745 37.4839 59.5294 37.4996C58.9637 37.5158 58.5 37.0621 58.5 36.5C58.5 35.0624 57.2802 33.9043 55.8213 34.0063C54.5898 34.0923 53.5923 35.0899 53.5063 36.3214C53.4044 37.7804 54.5624 39 56 39Z" fill="white"/>
<path d="M43.872 92H45.264V81.904H48.704V80.64H40.48V81.904H43.872V92ZM54.6788 81.632H55.6868C56.1508 81.392 56.9508 80.816 56.9508 80.064C56.9508 79.232 56.3428 78.88 55.5748 78.88C54.6948 78.88 54.0228 79.232 53.6548 79.552L53.9588 80.272C54.4068 79.904 54.8388 79.776 55.3028 79.776C55.6708 79.776 55.9108 79.888 55.9108 80.208C55.9268 80.64 55.3508 81.152 54.6788 81.632ZM49.9748 83.104H51.3028L52.4708 81.68H52.5028L53.6548 83.104H54.9508L53.1748 80.864H51.8148L49.9748 83.104ZM52.4708 92.096C54.7748 92.096 56.4868 90.48 56.4868 88.112C56.4868 85.744 54.7748 84.112 52.4708 84.112C50.0548 84.112 48.4388 85.872 48.4388 88.112C48.4388 90.352 50.0548 92.096 52.4708 92.096ZM52.4708 90.912C50.8548 90.912 49.7668 89.664 49.7668 88.112C49.7668 86.56 50.8388 85.296 52.4708 85.296C53.9748 85.296 55.1588 86.448 55.1588 88.112C55.1588 89.776 53.9588 90.912 52.4708 90.912ZM58.4191 92H59.7151V88.112C59.7151 86.352 60.6751 85.296 62.1471 85.296C63.2831 85.296 64.0671 85.92 64.0671 87.744V92H65.3631V87.376C65.3631 85.152 64.2431 84.112 62.5631 84.112C61.3631 84.112 60.3391 84.672 59.7311 85.616H59.7151V84.208H58.4191V92ZM71.0779 95.264C73.7979 95.264 74.9179 93.664 74.9179 91.424V84.208H73.6219V85.456H73.5899C72.9659 84.608 71.9579 84.112 70.8539 84.112C68.6619 84.112 67.1259 85.776 67.1259 88C67.1259 90.32 68.7739 91.856 70.9019 91.856C72.1019 91.856 73.0299 91.328 73.6059 90.496H73.6379V91.744C73.6379 93.056 72.7899 94.08 71.0299 94.08C69.9099 94.08 69.1259 93.776 68.2299 93.264L67.9099 94.416C68.8379 94.976 69.9099 95.264 71.0779 95.264ZM71.0619 90.656C69.5899 90.656 68.4379 89.616 68.4379 87.968C68.4379 86.448 69.4939 85.312 71.0779 85.312C72.5339 85.312 73.6699 86.368 73.6699 87.936C73.6699 89.488 72.6299 90.656 71.0619 90.656ZM83.943 92.096C85.815 92.096 86.743 91.088 86.743 89.872C86.759 88.352 85.671 88.064 84.023 87.424C83.175 87.12 82.551 86.816 82.551 86.208C82.551 85.616 83.143 85.264 83.751 85.264C84.423 85.264 85.143 85.472 85.815 86.096L86.487 85.072C85.623 84.368 84.743 84.112 83.799 84.112C82.327 84.112 81.239 85.008 81.239 86.208C81.239 87.632 82.311 88.144 83.575 88.592C84.711 89.008 85.431 89.2 85.431 89.888C85.431 90.48 84.887 90.944 83.943 90.944C82.855 90.944 82.167 90.592 81.559 90L80.903 90.992C81.655 91.648 82.647 92.096 83.943 92.096ZM94.0794 81.712H95.1034L97.0874 79.44H95.6154L94.0794 81.712ZM89.6314 83.104H90.9594L92.1274 81.68H92.1594L93.3114 83.104H94.6074L92.8314 80.864H91.4714L89.6314 83.104ZM92.1114 92.096C94.4154 92.096 96.1274 90.48 96.1274 88.112C96.1274 85.744 94.4154 84.112 92.1114 84.112C89.6954 84.112 88.0794 85.872 88.0794 88.112C88.0794 90.352 89.6954 92.096 92.1114 92.096ZM92.1114 90.912C90.4954 90.912 89.4074 89.664 89.4074 88.112C89.4074 86.56 90.4794 85.296 92.1114 85.296C93.6154 85.296 94.7994 86.448 94.7994 88.112C94.7994 89.776 93.5994 90.912 92.1114 90.912ZM104.611 92.096C105.539 92.096 106.067 91.872 106.499 91.616L106.163 90.48C105.779 90.688 105.299 90.88 104.835 90.88C104.099 90.88 103.891 90.432 103.891 89.488V85.328H106.467V84.208H103.891V81.408L102.595 81.552V84.208H101.587V85.328H102.595V89.68C102.595 91.248 103.235 92.096 104.611 92.096ZM108.906 82.784C109.434 82.784 109.85 82.368 109.85 81.856C109.85 81.344 109.434 80.928 108.906 80.928C108.378 80.928 107.962 81.344 107.962 81.856C107.962 82.368 108.378 82.784 108.906 82.784ZM108.25 92H109.546V84.208H108.25V92ZM119.115 81.712L117.563 79.44H116.107L118.075 81.712H119.115ZM115.451 81.664H115.483L116.635 83.088H117.931L116.155 80.848H114.795L112.955 83.088H114.283L115.451 81.664ZM115.419 84.112C113.195 84.112 111.579 85.76 111.579 88.112C111.579 90.496 113.211 92.096 115.515 92.096C117.083 92.096 118.059 91.504 118.731 90.64L117.819 89.872C117.339 90.464 116.603 90.912 115.563 90.912C114.091 90.912 113.067 89.952 112.891 88.496H118.971C118.971 88.4 119.003 88.176 119.003 87.968C119.003 85.744 117.547 84.112 115.419 84.112ZM115.403 85.296C116.683 85.296 117.515 86.16 117.707 87.44H112.923C113.163 86.112 114.155 85.296 115.403 85.296ZM120.904 92H122.2V88.112C122.2 86.352 123.16 85.296 124.632 85.296C125.768 85.296 126.552 85.92 126.552 87.744V92H127.848V87.376C127.848 85.152 126.728 84.112 125.048 84.112C123.848 84.112 122.824 84.672 122.216 85.616H122.2V84.208H120.904V92ZM142.866 81.952H141.874V80.224H140.578V81.952H137.298V82.88H140.578V85.6H140.562C139.97 84.656 138.962 84.112 137.778 84.112C135.586 84.112 133.97 85.856 133.97 88.16C133.97 90.528 135.634 92.096 137.794 92.096C139.058 92.096 140.05 91.504 140.61 90.56H140.626V92H141.874V82.88H142.866V81.952ZM137.97 90.912C136.386 90.912 135.298 89.728 135.298 88.16C135.298 86.432 136.498 85.296 137.986 85.296C139.554 85.296 140.626 86.56 140.626 88.16C140.626 89.808 139.442 90.912 137.97 90.912ZM148.985 83.008C149.689 83.008 150.297 82.4 150.585 81.328L149.769 81.056C149.561 81.616 149.225 81.936 148.841 81.936C148.473 81.936 148.153 81.68 147.817 81.472C147.465 81.232 147.081 81.008 146.521 81.008C145.705 81.008 145.161 81.616 144.857 82.576L145.689 82.944C145.897 82.384 146.217 82.048 146.649 82.048C146.953 82.048 147.257 82.224 147.577 82.432C147.977 82.704 148.441 83.008 148.985 83.008ZM147.449 92.096C148.713 92.096 149.673 91.52 150.233 90.592H150.249V92H151.497V84.208H150.201V85.584L150.169 85.6C149.609 84.656 148.601 84.112 147.449 84.112C145.241 84.112 143.657 85.856 143.657 88.16C143.657 90.528 145.305 92.096 147.449 92.096ZM147.641 90.912C146.041 90.912 144.969 89.728 144.969 88.16C144.969 86.432 146.169 85.296 147.641 85.296C149.177 85.296 150.249 86.56 150.249 88.16C150.249 89.808 149.081 90.912 147.641 90.912ZM160.505 92H161.753L164.921 84.208H163.529L161.145 90.352H161.129L158.745 84.208H157.337L160.505 92ZM169.34 92.096C170.604 92.096 171.564 91.52 172.124 90.592H172.14V92H173.388V84.208H172.092V85.584L172.06 85.6C171.5 84.656 170.492 84.112 169.34 84.112C167.132 84.112 165.548 85.856 165.548 88.16C165.548 90.528 167.196 92.096 169.34 92.096ZM169.532 90.912C167.932 90.912 166.86 89.728 166.86 88.16C166.86 86.432 168.06 85.296 169.532 85.296C171.068 85.296 172.14 86.56 172.14 88.16C172.14 89.808 170.972 90.912 169.532 90.912ZM176.772 95.168H178.116L182.532 84.208H181.172L178.82 90.128H178.788L176.26 84.208H174.852L178.164 91.696L176.772 95.168Z" fill="white"/>
<path d="M43.388 226H44.606V217.166H47.616V216.06H40.42V217.166H43.388V226ZM50.9809 218.272C52.1569 218.272 52.9129 217.53 52.9969 216.284H52.0869C52.0589 216.872 51.6669 217.376 50.9809 217.376C50.3089 217.376 49.9029 216.872 49.8749 216.284H48.9649C49.0489 217.53 49.8049 218.272 50.9809 218.272ZM50.7289 226.084C51.8349 226.084 52.6749 225.58 53.1649 224.768H53.1789V226H54.2709V219.182H53.1369V220.386L53.1089 220.4C52.6189 219.574 51.7369 219.098 50.7289 219.098C48.7969 219.098 47.4109 220.624 47.4109 222.64C47.4109 224.712 48.8529 226.084 50.7289 226.084ZM50.8969 225.048C49.4969 225.048 48.5589 224.012 48.5589 222.64C48.5589 221.128 49.6089 220.134 50.8969 220.134C52.2409 220.134 53.1789 221.24 53.1789 222.64C53.1789 224.082 52.1569 225.048 50.8969 225.048ZM56.3081 226H57.4421V222.598C57.4421 221.058 58.2821 220.134 59.5701 220.134C60.5641 220.134 61.2501 220.68 61.2501 222.276V226H62.3841V221.954C62.3841 220.008 61.4041 219.098 59.9341 219.098C58.8841 219.098 57.9881 219.588 57.4561 220.414H57.4421V219.182H56.3081V226ZM67.3845 228.856C69.7645 228.856 70.7445 227.456 70.7445 225.496V219.182H69.6105V220.274H69.5825C69.0365 219.532 68.1545 219.098 67.1885 219.098C65.2705 219.098 63.9265 220.554 63.9265 222.5C63.9265 224.53 65.3685 225.874 67.2305 225.874C68.2805 225.874 69.0925 225.412 69.5965 224.684H69.6245V225.776C69.6245 226.924 68.8825 227.82 67.3425 227.82C66.3625 227.82 65.6765 227.554 64.8925 227.106L64.6125 228.114C65.4245 228.604 66.3625 228.856 67.3845 228.856ZM67.3705 224.824C66.0825 224.824 65.0745 223.914 65.0745 222.472C65.0745 221.142 65.9985 220.148 67.3845 220.148C68.6585 220.148 69.6525 221.072 69.6525 222.444C69.6525 223.802 68.7425 224.824 67.3705 224.824ZM80.3915 226H81.5675V224.306H82.9675V223.242H81.5675V216.382H80.5735L75.9255 223.466V224.306H80.3915V226ZM77.2975 223.27L80.4335 218.384V223.27H77.2975ZM87.7762 226.084C90.0722 226.084 91.3882 224.04 91.3882 221.198C91.3882 218.048 89.8622 216.298 87.7762 216.298C85.4942 216.298 84.1642 218.342 84.1642 221.198C84.1642 224.334 85.6902 226.084 87.7762 226.084ZM87.7762 224.992C86.3622 224.992 85.3682 223.634 85.3682 221.198C85.3682 218.888 86.2502 217.39 87.7762 217.39C89.2042 217.39 90.1842 218.748 90.1842 221.198C90.1842 223.494 89.3162 224.992 87.7762 224.992ZM97.3945 226.238L101.749 216.284L100.825 215.892L96.4705 225.846L97.3945 226.238ZM95.5325 221.478C97.1985 221.478 98.3185 220.232 98.3185 218.706C98.3185 217.068 97.0585 215.962 95.5325 215.962C93.8665 215.962 92.7465 217.194 92.7465 218.706C92.7465 220.372 93.9925 221.478 95.5325 221.478ZM95.5325 220.582C94.5385 220.582 93.7405 219.84 93.7405 218.72C93.7405 217.698 94.4545 216.872 95.5325 216.872C96.5545 216.872 97.3525 217.614 97.3525 218.72C97.3525 219.756 96.6385 220.582 95.5325 220.582ZM102.617 226.084C104.297 226.084 105.417 224.852 105.417 223.326C105.417 221.674 104.157 220.582 102.617 220.582C100.951 220.582 99.8305 221.814 99.8305 223.326C99.8305 224.978 101.091 226.084 102.617 226.084ZM102.631 225.202C101.623 225.202 100.811 224.446 100.811 223.34C100.811 222.318 101.539 221.492 102.631 221.492C103.639 221.492 104.451 222.234 104.451 223.34C104.451 224.376 103.723 225.202 102.631 225.202ZM112.999 226.084C114.637 226.084 115.449 225.202 115.449 224.138C115.463 222.808 114.511 222.556 113.069 221.996C112.327 221.73 111.781 221.464 111.781 220.932C111.781 220.414 112.299 220.106 112.831 220.106C113.419 220.106 114.049 220.288 114.637 220.834L115.225 219.938C114.469 219.322 113.699 219.098 112.873 219.098C111.585 219.098 110.633 219.882 110.633 220.932C110.633 222.178 111.571 222.626 112.677 223.018C113.671 223.382 114.301 223.55 114.301 224.152C114.301 224.67 113.825 225.076 112.999 225.076C112.047 225.076 111.445 224.768 110.913 224.25L110.339 225.118C110.997 225.692 111.865 226.084 112.999 226.084ZM120.146 226.084C122.162 226.084 123.66 224.67 123.66 222.598C123.66 220.526 122.162 219.098 120.146 219.098C118.032 219.098 116.618 220.638 116.618 222.598C116.618 224.558 118.032 226.084 120.146 226.084ZM120.146 225.048C118.732 225.048 117.78 223.956 117.78 222.598C117.78 221.24 118.718 220.134 120.146 220.134C121.462 220.134 122.498 221.142 122.498 222.598C122.498 224.054 121.448 225.048 120.146 225.048ZM131.196 226H132.288L135.06 219.182H133.842L131.756 224.558H131.742L129.656 219.182H128.424L131.196 226ZM141.433 216.214L140.159 216.228L138.507 218.202H139.697L141.433 216.214ZM142.931 218.09V219.056C142.931 219.994 142.819 220.568 142.189 220.764C141.587 219.728 140.481 219.098 139.137 219.098C137.023 219.098 135.609 220.638 135.609 222.598C135.609 224.558 137.023 226.084 139.137 226.084C141.153 226.084 142.651 224.67 142.651 222.598C142.651 222.22 142.595 221.856 142.511 221.52C143.533 221.296 144.093 220.484 144.093 219.112V218.09H142.931ZM139.137 225.048C137.723 225.048 136.771 223.956 136.771 222.598C136.771 221.24 137.709 220.134 139.137 220.134C140.453 220.134 141.489 221.142 141.489 222.598C141.489 224.054 140.439 225.048 139.137 225.048ZM146.066 217.936C146.528 217.936 146.892 217.572 146.892 217.124C146.892 216.676 146.528 216.312 146.066 216.312C145.604 216.312 145.24 216.676 145.24 217.124C145.24 217.572 145.604 217.936 146.066 217.936ZM145.492 226H146.626V219.182H145.492V226ZM154.572 226.084C155.384 226.084 155.846 225.888 156.224 225.664L155.93 224.67C155.594 224.852 155.174 225.02 154.768 225.02C154.124 225.02 153.942 224.628 153.942 223.802V220.162H156.196V219.182H153.942V216.732L152.808 216.858V219.182H151.926V220.162H152.808V223.97C152.808 225.342 153.368 226.084 154.572 226.084ZM157.712 226H158.846V222.57C158.846 221.03 159.686 220.134 161.044 220.134C162.038 220.134 162.724 220.694 162.724 222.234V226H163.858V221.912C163.858 219.966 162.85 219.098 161.38 219.098C160.288 219.098 159.392 219.56 158.86 220.372H158.846V215.696H157.712V226ZM168.325 218.202H169.515L171.251 216.214L169.977 216.228L168.325 218.202ZM168.717 226.084C169.823 226.084 170.663 225.58 171.153 224.768H171.167V226H172.259V219.182H171.125V220.386L171.097 220.4C170.607 219.574 169.725 219.098 168.717 219.098C166.785 219.098 165.399 220.624 165.399 222.64C165.399 224.712 166.841 226.084 168.717 226.084ZM168.885 225.048C167.485 225.048 166.547 224.012 166.547 222.64C166.547 221.128 167.597 220.134 168.885 220.134C170.229 220.134 171.167 221.24 171.167 222.64C171.167 224.082 170.145 225.048 168.885 225.048ZM174.296 226H175.43V222.598C175.43 221.058 176.27 220.134 177.558 220.134C178.552 220.134 179.238 220.68 179.238 222.276V226H180.372V221.954C180.372 220.008 179.392 219.098 177.922 219.098C176.872 219.098 175.976 219.588 175.444 220.414H175.43V219.182H174.296V226ZM185.373 228.856C187.753 228.856 188.733 227.456 188.733 225.496V219.182H187.599V220.274H187.571C187.025 219.532 186.143 219.098 185.177 219.098C183.259 219.098 181.915 220.554 181.915 222.5C181.915 224.53 183.357 225.874 185.219 225.874C186.269 225.874 187.081 225.412 187.585 224.684H187.613V225.776C187.613 226.924 186.871 227.82 185.331 227.82C184.351 227.82 183.665 227.554 182.881 227.106L182.601 228.114C183.413 228.604 184.351 228.856 185.373 228.856ZM185.359 224.824C184.071 224.824 183.063 223.914 183.063 222.472C183.063 221.142 183.987 220.148 185.373 220.148C186.647 220.148 187.641 221.072 187.641 222.444C187.641 223.802 186.731 224.824 185.359 224.824ZM196.49 226.084C197.302 226.084 197.764 225.888 198.142 225.664L197.848 224.67C197.512 224.852 197.092 225.02 196.686 225.02C196.042 225.02 195.86 224.628 195.86 223.802V220.162H198.114V219.182H195.86V216.732L194.726 216.858V219.182H193.844V220.162H194.726V223.97C194.726 225.342 195.286 226.084 196.49 226.084ZM199.63 226H200.764V222.71C200.764 221.338 201.534 220.344 202.836 220.344C202.948 220.344 203.116 220.358 203.284 220.372V219.112C203.186 219.098 203.102 219.098 203.004 219.098C202.066 219.098 201.282 219.602 200.792 220.428H200.764V219.182H199.63V226ZM211.286 218.09V219.056C211.286 220.064 211.16 220.652 210.376 220.806V219.182H209.242V222.486C209.242 224.11 208.304 225.048 207.212 225.048C206.134 225.048 205.546 224.46 205.546 222.92V219.182H204.412V223.242C204.412 225.188 205.406 226.084 206.974 226.084C207.87 226.084 208.71 225.636 209.228 224.824H209.242V226H210.376V221.59C211.72 221.52 212.448 220.68 212.448 219.112V218.09H211.286ZM218.829 216.214L217.555 216.228L215.903 218.202H217.093L218.829 216.214ZM220.327 218.09V219.056C220.327 219.994 220.215 220.568 219.585 220.764C218.983 219.728 217.877 219.098 216.533 219.098C214.419 219.098 213.005 220.638 213.005 222.598C213.005 224.558 214.419 226.084 216.533 226.084C218.549 226.084 220.047 224.67 220.047 222.598C220.047 222.22 219.991 221.856 219.907 221.52C220.929 221.296 221.489 220.484 221.489 219.112V218.09H220.327ZM216.533 225.048C215.119 225.048 214.167 223.956 214.167 222.598C214.167 221.24 215.105 220.134 216.533 220.134C217.849 220.134 218.885 221.142 218.885 222.598C218.885 224.054 217.835 225.048 216.533 225.048ZM225.43 226.084C226.76 226.084 227.67 225.58 228.244 224.894L227.46 224.18C227.04 224.698 226.326 225.048 225.514 225.048C224.128 225.048 223.19 224.054 223.19 222.598C223.19 221.156 224.128 220.134 225.528 220.134C226.34 220.134 227.012 220.498 227.446 221.002L228.216 220.316C227.544 219.518 226.494 219.098 225.472 219.098C223.442 219.098 222.028 220.54 222.028 222.598C222.028 224.67 223.442 226.084 225.43 226.084Z" fill="white"/>
<path d="M41.344 138H55.456V134.608H46.976L46.944 134.512L51.584 129.68C54.368 126.8 55.232 124.72 55.232 122.288C55.232 118.256 51.968 115.824 48.352 115.824C44.768 115.824 42.496 117.616 41.248 119.984L43.904 121.872C44.896 120.144 46.336 119.28 48.096 119.28C50.08 119.28 51.456 120.752 51.456 122.704C51.456 124.592 50.144 126.192 48.352 128.08L41.28 135.536L41.344 138ZM66.5033 123.888C65.7353 123.888 64.6793 124.048 63.6553 124.368L63.9433 119.44H72.3593V116.016H60.4553L59.8153 127.536L61.8313 128.24C62.8873 127.376 64.0713 127.088 65.4153 127.088C67.4953 127.088 69.6713 128.432 69.6713 130.896C69.6713 133.136 68.0393 134.832 65.3513 134.832C63.3993 134.832 61.7993 133.904 60.8713 132.56L58.1833 134.704C59.9113 137.008 62.6633 138.256 65.6713 138.256C70.3433 138.256 73.4473 135.28 73.4473 130.96C73.4473 126.544 70.3113 123.888 66.5033 123.888ZM75.739 142.224H78.363L80.603 134.128H76.763L75.739 142.224ZM92.1433 138.256C97.4553 138.256 100.591 133.648 100.591 127.024C100.591 119.856 97.1033 115.792 92.1433 115.792C86.8633 115.792 83.6953 120.368 83.6953 127.024C83.6953 134.16 87.1833 138.256 92.1433 138.256ZM92.1433 134.8C89.3273 134.8 87.4713 131.888 87.4713 127.024C87.4713 122.096 89.2633 119.216 92.1433 119.216C95.0233 119.216 96.8153 122.096 96.8153 127.024C96.8153 131.92 95.0873 134.8 92.1433 134.8ZM112.362 138.256C117.674 138.256 120.81 133.648 120.81 127.024C120.81 119.856 117.322 115.792 112.362 115.792C107.082 115.792 103.914 120.368 103.914 127.024C103.914 134.16 107.402 138.256 112.362 138.256ZM112.362 134.8C109.546 134.8 107.69 131.888 107.69 127.024C107.69 122.096 109.482 119.216 112.362 119.216C115.242 119.216 117.034 122.096 117.034 127.024C117.034 131.92 115.306 134.8 112.362 134.8ZM132.581 138.256C137.893 138.256 141.029 133.648 141.029 127.024C141.029 119.856 137.541 115.792 132.581 115.792C127.301 115.792 124.133 120.368 124.133 127.024C124.133 134.16 127.621 138.256 132.581 138.256ZM132.581 134.8C129.765 134.8 127.909 131.888 127.909 127.024C127.909 122.096 129.701 119.216 132.581 119.216C135.461 119.216 137.253 122.096 137.253 127.024C137.253 131.92 135.525 134.8 132.581 134.8ZM143.02 142.224H145.644L147.884 134.128H144.044L143.02 142.224ZM159.425 138.256C164.737 138.256 167.873 133.648 167.873 127.024C167.873 119.856 164.385 115.792 159.425 115.792C154.145 115.792 150.977 120.368 150.977 127.024C150.977 134.16 154.465 138.256 159.425 138.256ZM159.425 134.8C156.609 134.8 154.753 131.888 154.753 127.024C154.753 122.096 156.545 119.216 159.425 119.216C162.305 119.216 164.097 122.096 164.097 127.024C164.097 131.92 162.369 134.8 159.425 134.8ZM179.643 138.256C184.955 138.256 188.091 133.648 188.091 127.024C188.091 119.856 184.603 115.792 179.643 115.792C174.363 115.792 171.195 120.368 171.195 127.024C171.195 134.16 174.683 138.256 179.643 138.256ZM179.643 134.8C176.827 134.8 174.971 131.888 174.971 127.024C174.971 122.096 176.763 119.216 179.643 119.216C182.523 119.216 184.315 122.096 184.315 127.024C184.315 131.92 182.587 134.8 179.643 134.8ZM199.862 138.256C205.174 138.256 208.31 133.648 208.31 127.024C208.31 119.856 204.822 115.792 199.862 115.792C194.582 115.792 191.414 120.368 191.414 127.024C191.414 134.16 194.902 138.256 199.862 138.256ZM199.862 134.8C197.046 134.8 195.19 131.888 195.19 127.024C195.19 122.096 196.982 119.216 199.862 119.216C202.742 119.216 204.534 122.096 204.534 127.024C204.534 131.92 202.806 134.8 199.862 134.8ZM227.971 138H231.395L239.875 115.28H235.747L229.731 132.432H229.699L223.651 115.28H219.491L227.971 138ZM243.44 138H247.312V121.968H247.376L258.352 138H262.288V115.28H258.448V131.6H258.384L247.28 115.28H243.44V138ZM267.847 138H275.175C282.471 138 286.887 133.36 286.887 126.672C286.887 119.952 282.279 115.28 275.079 115.28H267.847V138ZM271.719 134.544V118.736H275.143C279.719 118.736 282.887 122.064 282.887 126.672C282.887 131.184 279.751 134.544 274.951 134.544H271.719Z" fill="white"/>
<defs>
<linearGradient id="paint0_linear" x1="390" y1="252.353" x2="-1.16229e-05" y2="252.353" gradientUnits="userSpaceOnUse">
<stop stop-color="#787CE0"/>
<stop offset="1" stop-color="#6AABF3"/>
</linearGradient>
<linearGradient id="paint1_linear" x1="390" y1="252.353" x2="-1.16229e-05" y2="252.353" gradientUnits="userSpaceOnUse">
<stop stop-color="#787CE0"/>
<stop offset="1" stop-color="#6AABF3"/>
</linearGradient>
</defs>
</svg>
