<svg width="390" height="253" viewBox="0 0 390 253" fill="none" xmlns="http://www.w3.org/2000/svg">
<rect width="390" height="252.353" rx="10" fill="url(#paint0_linear)"/>
<g opacity="0.5">
<mask id="mask0" mask-type="alpha" maskUnits="userSpaceOnUse" x="0" y="0" width="390" height="253">
<rect width="390" height="252.353" rx="10" fill="url(#paint1_linear)"/>
</mask>
<g mask="url(#mask0)">
<circle opacity="0.25" cx="344.118" cy="222.071" r="91.7647" fill="white"/>
<circle opacity="0.25" cx="390" cy="121.129" r="91.7647" fill="white"/>
</g>
</g>
<path d="M44.688 92.096C46.672 92.096 48.496 90.976 48.496 88.896C48.496 86.768 46.88 86.256 44.976 85.504C43.552 84.96 42.528 84.56 42.544 83.472C42.56 82.384 43.504 81.808 44.576 81.808C45.424 81.808 46.4 82.208 47.312 82.96L48.16 81.856C47.088 80.992 45.84 80.528 44.576 80.528C42.624 80.528 41.104 81.84 41.104 83.536C41.104 85.536 42.816 86.256 44.496 86.88C46.016 87.456 47.04 87.792 47.04 89.056C47.04 90.16 46.096 90.8 44.704 90.8C43.6 90.8 42.384 90.288 41.568 89.264L40.672 90.336C41.808 91.552 43.264 92.096 44.688 92.096ZM56.0013 81.712H57.0253L59.0093 79.44H57.5373L56.0013 81.712ZM51.5533 83.104H52.8813L54.0493 81.68H54.0813L55.2333 83.104H56.5293L54.7533 80.864H53.3932L51.5533 83.104ZM54.0333 92.096C56.3373 92.096 58.0493 90.48 58.0493 88.112C58.0493 85.744 56.3373 84.112 54.0333 84.112C51.6173 84.112 50.0013 85.872 50.0013 88.112C50.0013 90.352 51.6173 92.096 54.0333 92.096ZM54.0333 90.912C52.4173 90.912 51.3293 89.664 51.3293 88.112C51.3293 86.56 52.4013 85.296 54.0333 85.296C55.5373 85.296 56.7213 86.448 56.7213 88.112C56.7213 89.776 55.5213 90.912 54.0333 90.912ZM66.533 92.096C67.461 92.096 67.989 91.872 68.421 91.616L68.085 90.48C67.701 90.688 67.221 90.88 66.757 90.88C66.021 90.88 65.813 90.432 65.813 89.488V85.328H68.389V84.208H65.813V81.408L64.517 81.552V84.208H63.509V85.328H64.517V89.68C64.517 91.248 65.157 92.096 66.533 92.096ZM70.8274 82.784C71.3554 82.784 71.7714 82.368 71.7714 81.856C71.7714 81.344 71.3554 80.928 70.8274 80.928C70.2994 80.928 69.8834 81.344 69.8834 81.856C69.8834 82.368 70.2994 82.784 70.8274 82.784ZM70.1714 92H71.4674V84.208H70.1714V92ZM81.0373 81.712L79.4853 79.44H78.0293L79.9973 81.712H81.0373ZM77.3733 81.664H77.4053L78.5573 83.088H79.8533L78.0773 80.848H76.7173L74.8773 83.088H76.2053L77.3733 81.664ZM77.3413 84.112C75.1173 84.112 73.5013 85.76 73.5013 88.112C73.5013 90.496 75.1332 92.096 77.4373 92.096C79.0053 92.096 79.9813 91.504 80.6533 90.64L79.7413 89.872C79.2613 90.464 78.5253 90.912 77.4852 90.912C76.0133 90.912 74.9893 89.952 74.8133 88.496H80.8933C80.8933 88.4 80.9253 88.176 80.9253 87.968C80.9253 85.744 79.4693 84.112 77.3413 84.112ZM77.3253 85.296C78.6053 85.296 79.4373 86.16 79.6293 87.44H74.8453C75.0853 86.112 76.0773 85.296 77.3253 85.296ZM82.8254 92H84.1214V88.112C84.1214 86.352 85.0814 85.296 86.5534 85.296C87.6894 85.296 88.4734 85.92 88.4734 87.744V92H89.7694V87.376C89.7694 85.152 88.6494 84.112 86.9694 84.112C85.7694 84.112 84.7454 84.672 84.1374 85.616H84.1214V84.208H82.8254V92ZM104.788 81.952H103.796V80.224H102.5V81.952H99.2195V82.88H102.5V85.6H102.484C101.892 84.656 100.884 84.112 99.6995 84.112C97.5075 84.112 95.8915 85.856 95.8915 88.16C95.8915 90.528 97.5555 92.096 99.7155 92.096C100.98 92.096 101.972 91.504 102.532 90.56H102.548V92H103.796V82.88H104.788V81.952ZM99.8915 90.912C98.3075 90.912 97.2195 89.728 97.2195 88.16C97.2195 86.432 98.4195 85.296 99.9075 85.296C101.476 85.296 102.548 86.56 102.548 88.16C102.548 89.808 101.364 90.912 99.8915 90.912ZM110.907 83.008C111.611 83.008 112.219 82.4 112.507 81.328L111.691 81.056C111.483 81.616 111.147 81.936 110.763 81.936C110.395 81.936 110.075 81.68 109.739 81.472C109.387 81.232 109.003 81.008 108.443 81.008C107.627 81.008 107.083 81.616 106.779 82.576L107.611 82.944C107.819 82.384 108.139 82.048 108.571 82.048C108.875 82.048 109.179 82.224 109.499 82.432C109.899 82.704 110.363 83.008 110.907 83.008ZM109.371 92.096C110.635 92.096 111.595 91.52 112.155 90.592H112.171V92H113.419V84.208H112.123V85.584L112.091 85.6C111.531 84.656 110.523 84.112 109.371 84.112C107.163 84.112 105.579 85.856 105.579 88.16C105.579 90.528 107.227 92.096 109.371 92.096ZM109.563 90.912C107.963 90.912 106.891 89.728 106.891 88.16C106.891 86.432 108.091 85.296 109.563 85.296C111.099 85.296 112.171 86.56 112.171 88.16C112.171 89.808 111.003 90.912 109.563 90.912ZM122.299 92.096C123.227 92.096 123.755 91.872 124.187 91.616L123.851 90.48C123.467 90.688 122.987 90.88 122.523 90.88C121.787 90.88 121.579 90.432 121.579 89.488V85.328H124.155V84.208H121.579V81.408L120.283 81.552V84.208H119.275V85.328H120.283V89.68C120.283 91.248 120.923 92.096 122.299 92.096ZM125.888 92H127.184V88.24C127.184 86.672 128.064 85.536 129.552 85.536C129.68 85.536 129.872 85.552 130.064 85.568V84.128C129.952 84.112 129.856 84.112 129.744 84.112C128.672 84.112 127.776 84.688 127.216 85.632H127.184V84.208H125.888V92ZM134.318 83.136H135.374C135.87 82.88 136.702 82.272 136.702 81.488C136.702 80.624 136.078 80.256 135.262 80.256C134.334 80.256 133.63 80.624 133.246 80.96L133.566 81.712C134.046 81.328 134.494 81.184 134.974 81.184C135.358 81.184 135.614 81.312 135.614 81.648C135.63 82.096 135.022 82.624 134.318 83.136ZM134.574 92.096C135.838 92.096 136.798 91.52 137.358 90.592H137.374V92H138.622V84.208H137.326V85.584L137.294 85.6C136.734 84.656 135.726 84.112 134.574 84.112C132.366 84.112 130.782 85.856 130.782 88.16C130.782 90.528 132.43 92.096 134.574 92.096ZM134.766 90.912C133.166 90.912 132.094 89.728 132.094 88.16C132.094 86.432 133.294 85.296 134.766 85.296C136.302 85.296 137.374 86.56 137.374 88.16C137.374 89.808 136.206 90.912 134.766 90.912Z" fill="white"/>
<path d="M45.754 226.07C47.504 226.07 48.764 225.272 49.632 224.194L48.722 223.424C48.022 224.306 47.042 224.922 45.754 224.922C43.654 224.922 42.072 223.438 42.072 221.058C42.072 218.776 43.486 217.124 45.74 217.124C46.86 217.124 47.882 217.6 48.708 218.622L49.618 217.866C48.568 216.578 47.168 215.962 45.74 215.962C42.562 215.962 40.798 218.244 40.798 221.058C40.798 224.306 43.066 226.07 45.754 226.07ZM51.1949 226H52.3289V222.57C52.3289 221.03 53.1689 220.134 54.5269 220.134C55.5209 220.134 56.2069 220.694 56.2069 222.234V226H57.3409V221.912C57.3409 219.966 56.3329 219.098 54.8629 219.098C53.7709 219.098 52.8749 219.56 52.3429 220.372H52.3289V215.696H51.1949V226ZM59.9876 217.936C60.4496 217.936 60.8136 217.572 60.8136 217.124C60.8136 216.676 60.4496 216.312 59.9876 216.312C59.5256 216.312 59.1616 216.676 59.1616 217.124C59.1616 217.572 59.5256 217.936 59.9876 217.936ZM59.4136 226H60.5476V219.182H59.4136V226ZM70.0693 215.01H68.7813L67.4373 216.998H68.3333L70.0693 215.01ZM65.7293 216.97H65.7573L66.7653 218.216H67.8993L66.3453 216.256H65.1553L63.5453 218.216H64.7073L65.7293 216.97ZM65.6873 219.098C63.7413 219.098 62.3273 220.54 62.3273 222.598C62.3273 224.684 63.7553 226.084 65.7713 226.084C67.1433 226.084 67.9973 225.566 68.5853 224.81L67.7873 224.138C67.3673 224.656 66.7233 225.048 65.8133 225.048C64.5253 225.048 63.6293 224.208 63.4753 222.934H68.7953C68.7953 222.85 68.8233 222.654 68.8233 222.472C68.8233 220.526 67.5493 219.098 65.6873 219.098ZM65.6733 220.134C66.7933 220.134 67.5213 220.89 67.6893 222.01H63.5033C63.7133 220.848 64.5813 220.134 65.6733 220.134ZM70.4859 226H71.6199V222.612C71.6199 221.086 72.4599 220.134 73.5799 220.134C74.6019 220.134 75.1619 220.932 75.1619 222.388V226H76.2959V222.612C76.2959 221.086 77.1499 220.134 78.2139 220.134C79.2499 220.134 79.7679 220.932 79.7679 222.388V226H80.9019V222.08C80.9019 220.134 80.0619 219.098 78.5499 219.098C77.4859 219.098 76.5619 219.63 76.0439 220.554H76.0299C75.6799 219.616 74.9379 219.098 73.9159 219.098C73.0059 219.098 72.1519 219.588 71.6339 220.414H71.6199V219.182H70.4859V226ZM86.155 226H92.203V224.922H87.947L87.933 224.88L90.439 222.36C91.629 221.156 92.091 220.218 92.091 219.14C92.091 217.362 90.691 216.312 89.151 216.312C87.653 216.312 86.687 217.068 86.155 218.132L87.023 218.734C87.471 217.866 88.171 217.418 89.081 217.418C90.145 217.418 90.887 218.202 90.887 219.266C90.887 220.218 90.243 220.988 89.431 221.828L86.141 225.188L86.155 226ZM97.2098 226.084C99.5058 226.084 100.822 224.04 100.822 221.198C100.822 218.048 99.2958 216.298 97.2098 216.298C94.9278 216.298 93.5978 218.342 93.5978 221.198C93.5978 224.334 95.1238 226.084 97.2098 226.084ZM97.2098 224.992C95.7958 224.992 94.8018 223.634 94.8018 221.198C94.8018 218.888 95.6838 217.39 97.2098 217.39C98.6378 217.39 99.6178 218.748 99.6178 221.198C99.6178 223.494 98.7498 224.992 97.2098 224.992ZM106.828 226.238L111.182 216.284L110.258 215.892L105.904 225.846L106.828 226.238ZM104.966 221.478C106.632 221.478 107.752 220.232 107.752 218.706C107.752 217.068 106.492 215.962 104.966 215.962C103.3 215.962 102.18 217.194 102.18 218.706C102.18 220.372 103.426 221.478 104.966 221.478ZM104.966 220.582C103.972 220.582 103.174 219.84 103.174 218.72C103.174 217.698 103.888 216.872 104.966 216.872C105.988 216.872 106.786 217.614 106.786 218.72C106.786 219.756 106.072 220.582 104.966 220.582ZM112.05 226.084C113.73 226.084 114.85 224.852 114.85 223.326C114.85 221.674 113.59 220.582 112.05 220.582C110.384 220.582 109.264 221.814 109.264 223.326C109.264 224.978 110.524 226.084 112.05 226.084ZM112.064 225.202C111.056 225.202 110.244 224.446 110.244 223.34C110.244 222.318 110.972 221.492 112.064 221.492C113.072 221.492 113.884 222.234 113.884 223.34C113.884 224.376 113.156 225.202 112.064 225.202ZM122.293 226.084C123.105 226.084 123.567 225.888 123.945 225.664L123.651 224.67C123.315 224.852 122.895 225.02 122.489 225.02C121.845 225.02 121.663 224.628 121.663 223.802V220.162H123.917V219.182H121.663V216.732L120.529 216.858V219.182H119.647V220.162H120.529V223.97C120.529 225.342 121.089 226.084 122.293 226.084ZM130.131 216.928H131.013C131.419 216.718 132.119 216.214 132.119 215.556C132.119 214.828 131.587 214.52 130.915 214.52C130.145 214.52 129.557 214.828 129.235 215.108L129.501 215.738C129.893 215.416 130.271 215.304 130.677 215.304C130.999 215.304 131.209 215.402 131.209 215.682C131.223 216.06 130.719 216.508 130.131 216.928ZM126.015 218.216H127.177L128.199 216.97H128.227L129.235 218.216H130.369L128.815 216.256H127.625L126.015 218.216ZM128.199 226.084C130.215 226.084 131.713 224.67 131.713 222.598C131.713 220.526 130.215 219.098 128.199 219.098C126.085 219.098 124.671 220.638 124.671 222.598C124.671 224.558 126.085 226.084 128.199 226.084ZM128.199 225.048C126.785 225.048 125.833 223.956 125.833 222.598C125.833 221.24 126.771 220.134 128.199 220.134C129.515 220.134 130.551 221.142 130.551 222.598C130.551 224.054 129.501 225.048 128.199 225.048ZM133.404 226H134.538V222.598C134.538 221.058 135.378 220.134 136.666 220.134C137.66 220.134 138.346 220.68 138.346 222.276V226H139.48V221.954C139.48 220.008 138.5 219.098 137.03 219.098C135.98 219.098 135.084 219.588 134.552 220.414H134.538V219.182H133.404V226ZM144.48 228.856C146.86 228.856 147.84 227.456 147.84 225.496V219.182H146.706V220.274H146.678C146.132 219.532 145.25 219.098 144.284 219.098C142.366 219.098 141.022 220.554 141.022 222.5C141.022 224.53 142.464 225.874 144.326 225.874C145.376 225.874 146.188 225.412 146.692 224.684H146.72V225.776C146.72 226.924 145.978 227.82 144.438 227.82C143.458 227.82 142.772 227.554 141.988 227.106L141.708 228.114C142.52 228.604 143.458 228.856 144.48 228.856ZM144.466 224.824C143.178 224.824 142.17 223.914 142.17 222.472C142.17 221.142 143.094 220.148 144.48 220.148C145.754 220.148 146.748 221.072 146.748 222.444C146.748 223.802 145.838 224.824 144.466 224.824ZM155.737 226.084C157.375 226.084 158.187 225.202 158.187 224.138C158.201 222.808 157.249 222.556 155.807 221.996C155.065 221.73 154.519 221.464 154.519 220.932C154.519 220.414 155.037 220.106 155.569 220.106C156.157 220.106 156.787 220.288 157.375 220.834L157.963 219.938C157.207 219.322 156.437 219.098 155.611 219.098C154.323 219.098 153.371 219.882 153.371 220.932C153.371 222.178 154.309 222.626 155.415 223.018C156.409 223.382 157.039 223.55 157.039 224.152C157.039 224.67 156.563 225.076 155.737 225.076C154.785 225.076 154.183 224.768 153.651 224.25L153.077 225.118C153.735 225.692 154.603 226.084 155.737 226.084ZM164.607 216.998H165.503L167.239 215.01H165.951L164.607 216.998ZM160.715 218.216H161.877L162.899 216.97H162.927L163.935 218.216H165.069L163.515 216.256H162.325L160.715 218.216ZM162.885 226.084C164.901 226.084 166.399 224.67 166.399 222.598C166.399 220.526 164.901 219.098 162.885 219.098C160.771 219.098 159.357 220.638 159.357 222.598C159.357 224.558 160.771 226.084 162.885 226.084ZM162.885 225.048C161.471 225.048 160.519 223.956 160.519 222.598C160.519 221.24 161.457 220.134 162.885 220.134C164.201 220.134 165.237 221.142 165.237 222.598C165.237 224.054 164.187 225.048 162.885 225.048ZM171.904 226H173.038V224.306L174.438 222.794L176.496 226H177.798L175.222 221.996L177.77 219.182H176.398L173.052 222.92L173.038 222.906V215.696H171.904V226ZM179.136 226H180.27V222.57C180.27 221.03 181.11 220.134 182.468 220.134C183.462 220.134 184.148 220.694 184.148 222.234V226H185.282V221.912C185.282 219.966 184.274 219.098 182.804 219.098C181.712 219.098 180.816 219.56 180.284 220.372H180.27V215.696H179.136V226ZM190.365 226.084C192.381 226.084 193.879 224.67 193.879 222.598C193.879 220.526 192.381 219.098 190.365 219.098C188.251 219.098 186.837 220.638 186.837 222.598C186.837 224.558 188.251 226.084 190.365 226.084ZM190.365 225.048C188.951 225.048 187.999 223.956 187.999 222.598C187.999 221.24 188.937 220.134 190.365 220.134C191.681 220.134 192.717 221.142 192.717 222.598C192.717 224.054 191.667 225.048 190.365 225.048ZM198.216 218.244H199.14C199.574 218.02 200.302 217.488 200.302 216.802C200.302 216.046 199.756 215.724 199.042 215.724C198.23 215.724 197.614 216.046 197.278 216.34L197.558 216.998C197.978 216.662 198.37 216.536 198.79 216.536C199.126 216.536 199.35 216.648 199.35 216.942C199.364 217.334 198.832 217.796 198.216 218.244ZM198.44 226.084C199.546 226.084 200.386 225.58 200.876 224.768H200.89V226H201.982V219.182H200.848V220.386L200.82 220.4C200.33 219.574 199.448 219.098 198.44 219.098C196.508 219.098 195.122 220.624 195.122 222.64C195.122 224.712 196.564 226.084 198.44 226.084ZM198.608 225.048C197.208 225.048 196.27 224.012 196.27 222.64C196.27 221.128 197.32 220.134 198.608 220.134C199.952 220.134 200.89 221.24 200.89 222.64C200.89 224.082 199.868 225.048 198.608 225.048ZM204.019 226H205.153V222.598C205.153 221.058 205.993 220.134 207.281 220.134C208.275 220.134 208.961 220.68 208.961 222.276V226H210.095V221.954C210.095 220.008 209.115 219.098 207.645 219.098C206.595 219.098 205.699 219.588 205.167 220.414H205.153V219.182H204.019V226ZM217.93 226H219.022L221.794 219.182H220.576L218.49 224.558H218.476L216.39 219.182H215.158L217.93 226ZM225.661 226.084C226.767 226.084 227.607 225.58 228.097 224.768H228.111V226H229.203V219.182H228.069V220.386L228.041 220.4C227.551 219.574 226.669 219.098 225.661 219.098C223.729 219.098 222.343 220.624 222.343 222.64C222.343 224.712 223.785 226.084 225.661 226.084ZM225.829 225.048C224.429 225.048 223.491 224.012 223.491 222.64C223.491 221.128 224.541 220.134 225.829 220.134C227.173 220.134 228.111 221.24 228.111 222.64C228.111 224.082 227.089 225.048 225.829 225.048ZM232.164 228.772H233.34L237.204 219.182H236.014L233.956 224.362H233.928L231.716 219.182H230.484L233.382 225.734L232.164 228.772Z" fill="white"/>
<path d="M49.472 123.888C48.704 123.888 47.648 124.048 46.624 124.368L46.912 119.44H55.328V116.016H43.424L42.784 127.536L44.8 128.24C45.856 127.376 47.04 127.088 48.384 127.088C50.464 127.088 52.64 128.432 52.64 130.896C52.64 133.136 51.008 134.832 48.32 134.832C46.368 134.832 44.768 133.904 43.84 132.56L41.152 134.704C42.88 137.008 45.632 138.256 48.64 138.256C53.312 138.256 56.416 135.28 56.416 130.96C56.416 126.544 53.28 123.888 49.472 123.888ZM58.7078 142.224H61.3318L63.5718 134.128H59.7318L58.7078 142.224ZM75.112 138.256C80.424 138.256 83.56 133.648 83.56 127.024C83.56 119.856 80.072 115.792 75.112 115.792C69.832 115.792 66.664 120.368 66.664 127.024C66.664 134.16 70.152 138.256 75.112 138.256ZM75.112 134.8C72.296 134.8 70.44 131.888 70.44 127.024C70.44 122.096 72.232 119.216 75.112 119.216C77.992 119.216 79.784 122.096 79.784 127.024C79.784 131.92 78.056 134.8 75.112 134.8ZM95.3308 138.256C100.643 138.256 103.779 133.648 103.779 127.024C103.779 119.856 100.291 115.792 95.3308 115.792C90.0508 115.792 86.8828 120.368 86.8828 127.024C86.8828 134.16 90.3708 138.256 95.3308 138.256ZM95.3308 134.8C92.5148 134.8 90.6588 131.888 90.6588 127.024C90.6588 122.096 92.4508 119.216 95.3308 119.216C98.2108 119.216 100.003 122.096 100.003 127.024C100.003 131.92 98.2748 134.8 95.3308 134.8ZM115.55 138.256C120.862 138.256 123.998 133.648 123.998 127.024C123.998 119.856 120.51 115.792 115.55 115.792C110.27 115.792 107.102 120.368 107.102 127.024C107.102 134.16 110.59 138.256 115.55 138.256ZM115.55 134.8C112.734 134.8 110.878 131.888 110.878 127.024C110.878 122.096 112.67 119.216 115.55 119.216C118.43 119.216 120.222 122.096 120.222 127.024C120.222 131.92 118.494 134.8 115.55 134.8ZM125.989 142.224H128.613L130.853 134.128H127.013L125.989 142.224ZM142.393 138.256C147.705 138.256 150.841 133.648 150.841 127.024C150.841 119.856 147.353 115.792 142.393 115.792C137.113 115.792 133.945 120.368 133.945 127.024C133.945 134.16 137.433 138.256 142.393 138.256ZM142.393 134.8C139.577 134.8 137.721 131.888 137.721 127.024C137.721 122.096 139.513 119.216 142.393 119.216C145.273 119.216 147.065 122.096 147.065 127.024C147.065 131.92 145.337 134.8 142.393 134.8ZM162.612 138.256C167.924 138.256 171.06 133.648 171.06 127.024C171.06 119.856 167.572 115.792 162.612 115.792C157.332 115.792 154.164 120.368 154.164 127.024C154.164 134.16 157.652 138.256 162.612 138.256ZM162.612 134.8C159.796 134.8 157.94 131.888 157.94 127.024C157.94 122.096 159.732 119.216 162.612 119.216C165.492 119.216 167.284 122.096 167.284 127.024C167.284 131.92 165.556 134.8 162.612 134.8ZM182.831 138.256C188.143 138.256 191.279 133.648 191.279 127.024C191.279 119.856 187.791 115.792 182.831 115.792C177.551 115.792 174.383 120.368 174.383 127.024C174.383 134.16 177.871 138.256 182.831 138.256ZM182.831 134.8C180.015 134.8 178.159 131.888 178.159 127.024C178.159 122.096 179.951 119.216 182.831 119.216C185.711 119.216 187.503 122.096 187.503 127.024C187.503 131.92 185.775 134.8 182.831 134.8ZM210.94 138H214.364L222.844 115.28H218.716L212.7 132.432H212.668L206.62 115.28H202.46L210.94 138ZM226.409 138H230.281V121.968H230.345L241.321 138H245.257V115.28H241.417V131.6H241.353L230.249 115.28H226.409V138ZM250.815 138H258.143C265.439 138 269.855 133.36 269.855 126.672C269.855 119.952 265.247 115.28 258.047 115.28H250.815V138ZM254.687 134.544V118.736H258.111C262.687 118.736 265.855 122.064 265.855 126.672C265.855 131.184 262.719 134.544 257.919 134.544H254.687Z" fill="white"/>
<path d="M40.0816 41.1204C39.8862 39.4268 40.049 37.7917 40.492 36.2804C41.9642 31.258 46.5828 27.5644 52.0612 27.4993V24.2161C52.0612 24.0337 52.2892 23.936 52.439 24.0468L59.1942 29.0106C59.305 29.0953 59.305 29.2646 59.1942 29.3428L52.4455 34.3066C52.2892 34.4173 52.0677 34.3196 52.0677 34.1372V30.8606C48.4654 30.9192 45.3907 33.1406 44.0683 36.2804C43.5667 37.466 43.3126 38.7753 43.3843 40.1498C43.482 42.0389 44.1921 43.7782 45.3125 45.1853C45.9118 45.9344 45.7685 47.0288 44.9933 47.5955C44.2572 48.1362 43.228 47.9864 42.6612 47.2698C41.2737 45.5371 40.3487 43.4265 40.0816 41.1204ZM59.5851 34.8147C60.712 36.2153 61.4221 37.9611 61.5133 39.8502C61.5849 41.2312 61.3244 42.5405 60.8293 43.7196C59.5069 46.8594 56.4322 49.0873 52.8299 49.1394V45.8628C52.8299 45.6804 52.6019 45.5827 52.452 45.6934L45.6968 50.6572C45.5861 50.7419 45.5861 50.9113 45.6968 50.9894L52.4455 55.9532C52.6019 56.064 52.8233 55.9663 52.8233 55.7839V52.5007C58.3018 52.4421 62.9268 48.7485 64.3925 43.7196C64.8355 42.2083 64.9918 40.5732 64.8029 38.8796C64.5424 36.5735 63.6173 34.4629 62.2298 32.7302C61.6566 32.0136 60.6339 31.8638 59.8977 32.4045C59.1291 32.9712 58.9858 34.0656 59.5851 34.8147Z" fill="white"/>
<defs>
<linearGradient id="paint0_linear" x1="0" y1="252.353" x2="390" y2="252.353" gradientUnits="userSpaceOnUse">
<stop stop-color="#A18AEA"/>
<stop offset="0.645833" stop-color="#837DFC"/>
</linearGradient>
<linearGradient id="paint1_linear" x1="390" y1="252.353" x2="-1.16229e-05" y2="252.353" gradientUnits="userSpaceOnUse">
<stop stop-color="#787CE0"/>
<stop offset="1" stop-color="#6AABF3"/>
</linearGradient>
</defs>
</svg>
