<svg width="390" height="253" viewBox="0 0 390 253" fill="none" xmlns="http://www.w3.org/2000/svg">
<rect width="390" height="252.353" rx="10" fill="url(#paint0_linear)"/>
<g opacity="0.5">
<mask id="mask0" mask-type="alpha" maskUnits="userSpaceOnUse" x="0" y="0" width="390" height="253">
<rect width="390" height="252.353" rx="10" fill="url(#paint1_linear)"/>
</mask>
<g mask="url(#mask0)">
<circle opacity="0.25" cx="344.118" cy="222.071" r="91.7647" fill="white"/>
<circle opacity="0.25" cx="390" cy="121.129" r="91.7647" fill="white"/>
</g>
</g>
<path d="M56.576 90.08C58.576 90.08 60.016 89.168 61.008 87.936L59.968 87.056C59.168 88.064 58.048 88.768 56.576 88.768C54.176 88.768 52.368 87.072 52.368 84.352C52.368 81.744 53.984 79.856 56.56 79.856C57.84 79.856 59.008 80.4 59.952 81.568L60.992 80.704C59.792 79.232 58.192 78.528 56.56 78.528C52.928 78.528 50.912 81.136 50.912 84.352C50.912 88.064 53.504 90.08 56.576 90.08ZM65.6261 81.088H66.9861L68.9701 78.816L67.5141 78.832L65.6261 81.088ZM66.0741 90.096C67.3381 90.096 68.2981 89.52 68.8581 88.592H68.8741V90H70.1221V82.208H68.8261V83.584L68.7941 83.6C68.2341 82.656 67.2261 82.112 66.0741 82.112C63.8661 82.112 62.2821 83.856 62.2821 86.16C62.2821 88.528 63.9301 90.096 66.0741 90.096ZM66.2661 88.912C64.6661 88.912 63.5941 87.728 63.5941 86.16C63.5941 84.432 64.7941 83.296 66.2661 83.296C67.8021 83.296 68.8741 84.56 68.8741 86.16C68.8741 87.808 67.7061 88.912 66.2661 88.912ZM75.8424 90.096C77.3624 90.096 78.4024 89.52 79.0584 88.736L78.1624 87.92C77.6824 88.512 76.8664 88.912 75.9384 88.912C74.3544 88.912 73.2824 87.776 73.2824 86.112C73.2824 84.464 74.3544 83.296 75.9544 83.296C76.8824 83.296 77.6504 83.712 78.1464 84.288L79.0264 83.504C78.2584 82.592 77.0584 82.112 75.8904 82.112C73.5704 82.112 71.9544 83.76 71.9544 86.112C71.9544 88.48 73.5704 90.096 75.8424 90.096ZM87.4735 90H88.7215L91.8895 82.208H90.4975L88.1135 88.352H88.0975L85.7135 82.208H84.3055L87.4735 90ZM94.218 80.784C94.746 80.784 95.162 80.368 95.162 79.856C95.162 79.344 94.746 78.928 94.218 78.928C93.69 78.928 93.274 79.344 93.274 79.856C93.274 80.368 93.69 80.784 94.218 80.784ZM93.562 90H94.858V82.208H93.562V90ZM100.764 79.68H100.796L101.948 81.104H103.244L101.468 78.864H100.108L98.2679 81.104H99.5959L100.764 79.68ZM104.316 85.968C104.316 83.744 102.86 82.112 100.732 82.112C98.5079 82.112 96.8919 83.76 96.8919 86.112C96.8919 88.496 98.5239 90.096 100.828 90.096C102.396 90.096 103.372 89.504 104.044 88.64L103.132 87.872C102.652 88.464 101.916 88.912 100.876 88.912C99.4039 88.912 98.3799 87.952 98.2039 86.496H104.284C104.284 86.4 104.316 86.176 104.316 85.968ZM100.716 83.296C101.996 83.296 102.828 84.16 103.02 85.44H98.2359C98.4759 84.112 99.4679 83.296 100.716 83.296ZM100.844 91.504C100.316 91.504 99.8999 91.92 99.8999 92.432C99.8999 92.944 100.316 93.36 100.844 93.36C101.372 93.36 101.788 92.944 101.788 92.432C101.788 91.92 101.372 91.504 100.844 91.504ZM109.608 90.096C111.128 90.096 112.168 89.52 112.824 88.736L111.928 87.92C111.448 88.512 110.632 88.912 109.704 88.912C108.12 88.912 107.048 87.776 107.048 86.112C107.048 84.464 108.12 83.296 109.72 83.296C110.648 83.296 111.416 83.712 111.912 84.288L112.792 83.504C112.024 82.592 110.824 82.112 109.656 82.112C107.336 82.112 105.72 83.76 105.72 86.112C105.72 88.48 107.336 90.096 109.608 90.096ZM119.015 90H120.311V78.224H119.015V90ZM126.105 81.072H127.417L125.641 78.88L124.169 78.864L126.105 81.072ZM126.121 90.096C127.385 90.096 128.345 89.52 128.905 88.592H128.921V90H130.169V82.208H128.873V83.584L128.841 83.6C128.281 82.656 127.273 82.112 126.121 82.112C123.913 82.112 122.329 83.856 122.329 86.16C122.329 88.528 123.977 90.096 126.121 90.096ZM126.313 88.912C124.713 88.912 123.641 87.728 123.641 86.16C123.641 84.432 124.841 83.296 126.313 83.296C127.849 83.296 128.921 84.56 128.921 86.16C128.921 87.808 127.753 88.912 126.313 88.912ZM132.497 90H133.793V86.128C133.793 84.384 134.753 83.296 136.033 83.296C137.201 83.296 137.841 84.208 137.841 85.872V90H139.137V86.128C139.137 84.384 140.113 83.296 141.329 83.296C142.513 83.296 143.105 84.208 143.105 85.872V90H144.401V85.52C144.401 83.296 143.441 82.112 141.713 82.112C140.497 82.112 139.441 82.72 138.849 83.776H138.833C138.433 82.704 137.585 82.112 136.417 82.112C135.377 82.112 134.401 82.672 133.809 83.616H133.793V82.208H132.497V90ZM159.397 79.952H158.405V78.224H157.109V79.952H153.829V80.88H157.109V83.6H157.093C156.501 82.656 155.493 82.112 154.309 82.112C152.117 82.112 150.501 83.856 150.501 86.16C150.501 88.528 152.165 90.096 154.325 90.096C155.589 90.096 156.581 89.504 157.141 88.56H157.157V90H158.405V80.88H159.397V79.952ZM154.501 88.912C152.917 88.912 151.829 87.728 151.829 86.16C151.829 84.432 153.029 83.296 154.517 83.296C156.085 83.296 157.157 84.56 157.157 86.16C157.157 87.808 155.973 88.912 154.501 88.912ZM165.516 81.008C166.22 81.008 166.828 80.4 167.116 79.328L166.3 79.056C166.092 79.616 165.756 79.936 165.372 79.936C165.004 79.936 164.684 79.68 164.348 79.472C163.996 79.232 163.612 79.008 163.052 79.008C162.236 79.008 161.692 79.616 161.388 80.576L162.22 80.944C162.428 80.384 162.748 80.048 163.18 80.048C163.484 80.048 163.788 80.224 164.108 80.432C164.508 80.704 164.972 81.008 165.516 81.008ZM163.98 90.096C165.244 90.096 166.204 89.52 166.764 88.592H166.78V90H168.028V82.208H166.732V83.584L166.7 83.6C166.14 82.656 165.132 82.112 163.98 82.112C161.772 82.112 160.188 83.856 160.188 86.16C160.188 88.528 161.836 90.096 163.98 90.096ZM164.172 88.912C162.572 88.912 161.5 87.728 161.5 86.16C161.5 84.432 162.7 83.296 164.172 83.296C165.708 83.296 166.78 84.56 166.78 86.16C166.78 87.808 165.612 88.912 164.172 88.912ZM174.716 90H176.012V86.112C176.012 84.352 176.972 83.296 178.444 83.296C179.58 83.296 180.364 83.92 180.364 85.744V90H181.66V85.376C181.66 83.152 180.54 82.112 178.86 82.112C177.66 82.112 176.636 82.672 176.028 83.616H176.012V82.208H174.716V90ZM184.975 81.104H186.303L187.471 79.68H187.503L188.655 81.104H189.951L188.175 78.864H186.815L184.975 81.104ZM187.471 90.096C189.775 90.096 191.487 88.48 191.487 86.112C191.487 83.744 189.775 82.112 187.471 82.112C185.055 82.112 183.439 83.872 183.439 86.112C183.439 88.352 185.055 90.096 187.471 90.096ZM187.471 88.912C185.855 88.912 184.767 87.664 184.767 86.112C184.767 84.56 185.839 83.296 187.471 83.296C188.975 83.296 190.159 84.448 190.159 86.112C190.159 87.776 188.959 88.912 187.471 88.912ZM187.471 91.504C186.943 91.504 186.527 91.92 186.527 92.432C186.527 92.944 186.943 93.36 187.471 93.36C187.999 93.36 188.415 92.944 188.415 92.432C188.415 91.92 187.999 91.504 187.471 91.504ZM193.419 93.168H194.715V88.656H194.731C195.307 89.552 196.267 90.096 197.499 90.096C199.643 90.096 201.291 88.528 201.291 86.16C201.291 83.856 199.707 82.112 197.499 82.112C196.315 82.112 195.323 82.656 194.731 83.584H194.715V82.208H193.419V93.168ZM197.323 88.912C195.835 88.912 194.651 87.808 194.651 86.16C194.651 84.56 195.723 83.296 197.307 83.296C198.779 83.296 199.979 84.432 199.979 86.16C199.979 87.728 198.891 88.912 197.323 88.912ZM207.607 90H208.903V86.08C208.903 84.32 209.863 83.296 211.415 83.296C212.551 83.296 213.335 83.936 213.335 85.696V90H214.631V85.328C214.631 83.104 213.479 82.112 211.799 82.112C210.551 82.112 209.527 82.64 208.919 83.568H208.903V78.224H207.607V90ZM223.064 79.712H224.104L222.552 77.44H221.096L223.064 79.712ZM217.944 81.088H219.272L220.44 79.664H220.472L221.624 81.088H222.92L221.144 78.848H219.784L217.944 81.088ZM220.44 90.096C222.744 90.096 224.456 88.48 224.456 86.112C224.456 83.744 222.744 82.112 220.44 82.112C218.024 82.112 216.408 83.872 216.408 86.112C216.408 88.352 218.024 90.096 220.44 90.096ZM220.44 88.912C218.824 88.912 217.736 87.664 217.736 86.112C217.736 84.56 218.808 83.296 220.44 83.296C221.944 83.296 223.128 84.448 223.128 86.112C223.128 87.776 221.928 88.912 220.44 88.912ZM233.099 90.096C234.971 90.096 235.899 89.088 235.899 87.872C235.915 86.352 234.827 86.064 233.179 85.424C232.331 85.12 231.707 84.816 231.707 84.208C231.707 83.616 232.299 83.264 232.907 83.264C233.579 83.264 234.299 83.472 234.971 84.096L235.643 83.072C234.779 82.368 233.899 82.112 232.955 82.112C231.483 82.112 230.395 83.008 230.395 84.208C230.395 85.632 231.467 86.144 232.731 86.592C233.867 87.008 234.587 87.2 234.587 87.888C234.587 88.48 234.043 88.944 233.099 88.944C232.011 88.944 231.323 88.592 230.715 88L230.059 88.992C230.811 89.648 231.803 90.096 233.099 90.096ZM245.604 80.96V82.064C245.604 83.136 245.476 83.792 244.756 84.016C244.068 82.832 242.804 82.112 241.268 82.112C238.852 82.112 237.236 83.872 237.236 86.112C237.236 88.352 238.852 90.096 241.268 90.096C243.572 90.096 245.284 88.48 245.284 86.112C245.284 85.68 245.22 85.264 245.124 84.88C246.292 84.624 246.932 83.696 246.932 82.128V80.96H245.604ZM241.268 88.912C239.652 88.912 238.564 87.664 238.564 86.112C238.564 84.56 239.636 83.296 241.268 83.296C242.772 83.296 243.956 84.448 243.956 86.112C243.956 87.776 242.756 88.912 241.268 88.912Z" fill="white"/>
<path d="M50.532 224H56.58V222.922H52.324L52.31 222.88L54.816 220.36C56.006 219.156 56.468 218.218 56.468 217.14C56.468 215.362 55.068 214.312 53.528 214.312C52.03 214.312 51.064 215.068 50.532 216.132L51.4 216.734C51.848 215.866 52.548 215.418 53.458 215.418C54.522 215.418 55.264 216.202 55.264 217.266C55.264 218.218 54.62 218.988 53.808 219.828L50.518 223.188L50.532 224ZM64.1272 224H65.2192L67.9912 217.182H66.7732L64.6872 222.558H64.6732L62.5872 217.182H61.3552L64.1272 224ZM70.0286 215.936C70.4906 215.936 70.8546 215.572 70.8546 215.124C70.8546 214.676 70.4906 214.312 70.0286 214.312C69.5666 214.312 69.2026 214.676 69.2026 215.124C69.2026 215.572 69.5666 215.936 70.0286 215.936ZM69.4546 224H70.5886V217.182H69.4546V224ZM75.7563 214.97H75.7843L76.7923 216.216H77.9263L76.3723 214.256H75.1823L73.5723 216.216H74.7343L75.7563 214.97ZM78.8643 220.472C78.8643 218.526 77.5903 217.098 75.7283 217.098C73.7823 217.098 72.3683 218.54 72.3683 220.598C72.3683 222.684 73.7963 224.084 75.8123 224.084C77.1843 224.084 78.0383 223.566 78.6263 222.81L77.8283 222.138C77.4083 222.656 76.7643 223.048 75.8543 223.048C74.5663 223.048 73.6703 222.208 73.5163 220.934H78.8363C78.8363 220.85 78.8643 220.654 78.8643 220.472ZM75.7143 218.134C76.8343 218.134 77.5623 218.89 77.7303 220.01H73.5443C73.7543 218.848 74.6223 218.134 75.7143 218.134ZM75.8263 225.316C75.3643 225.316 75.0003 225.68 75.0003 226.128C75.0003 226.576 75.3643 226.94 75.8263 226.94C76.2883 226.94 76.6523 226.576 76.6523 226.128C76.6523 225.68 76.2883 225.316 75.8263 225.316ZM83.4949 224.084C84.8249 224.084 85.7349 223.58 86.3089 222.894L85.5249 222.18C85.1049 222.698 84.3909 223.048 83.5789 223.048C82.1929 223.048 81.2549 222.054 81.2549 220.598C81.2549 219.156 82.1929 218.134 83.5929 218.134C84.4049 218.134 85.0769 218.498 85.5109 219.002L86.2809 218.316C85.6089 217.518 84.5589 217.098 83.5369 217.098C81.5069 217.098 80.0929 218.54 80.0929 220.598C80.0929 222.67 81.5069 224.084 83.4949 224.084ZM98.9781 215.208H98.1101V213.696H96.9761V215.208H94.1061V216.02H96.9761V218.4H96.9621C96.4441 217.574 95.5621 217.098 94.5261 217.098C92.6081 217.098 91.1941 218.624 91.1941 220.64C91.1941 222.712 92.6501 224.084 94.5401 224.084C95.6461 224.084 96.5141 223.566 97.0041 222.74H97.0181V224H98.1101V216.02H98.9781V215.208ZM94.6941 223.048C93.3081 223.048 92.3561 222.012 92.3561 220.64C92.3561 219.128 93.4061 218.134 94.7081 218.134C96.0801 218.134 97.0181 219.24 97.0181 220.64C97.0181 222.082 95.9821 223.048 94.6941 223.048ZM104.333 216.132C104.949 216.132 105.481 215.6 105.733 214.662L105.019 214.424C104.837 214.914 104.543 215.194 104.207 215.194C103.885 215.194 103.605 214.97 103.311 214.788C103.003 214.578 102.667 214.382 102.177 214.382C101.463 214.382 100.987 214.914 100.721 215.754L101.449 216.076C101.631 215.586 101.911 215.292 102.289 215.292C102.555 215.292 102.821 215.446 103.101 215.628C103.451 215.866 103.857 216.132 104.333 216.132ZM102.989 224.084C104.095 224.084 104.935 223.58 105.425 222.768H105.439V224H106.531V217.182H105.397V218.386L105.369 218.4C104.879 217.574 103.997 217.098 102.989 217.098C101.057 217.098 99.6707 218.624 99.6707 220.64C99.6707 222.712 101.113 224.084 102.989 224.084ZM103.157 223.048C101.757 223.048 100.819 222.012 100.819 220.64C100.819 219.128 101.869 218.134 103.157 218.134C104.501 218.134 105.439 219.24 105.439 220.64C105.439 222.082 104.417 223.048 103.157 223.048ZM115.952 224.084C117.828 224.084 119.27 222.712 119.27 220.64C119.27 218.624 117.884 217.098 115.952 217.098C114.916 217.098 114.048 217.56 113.53 218.372H113.516V213.696H112.382V224H113.46V222.768H113.488C113.992 223.58 114.832 224.084 115.952 224.084ZM115.798 223.048C114.496 223.048 113.46 222.082 113.46 220.64C113.46 219.24 114.398 218.134 115.784 218.134C117.072 218.134 118.122 219.128 118.122 220.64C118.122 222.012 117.17 223.048 115.798 223.048ZM121.64 215.936C122.102 215.936 122.466 215.572 122.466 215.124C122.466 214.676 122.102 214.312 121.64 214.312C121.178 214.312 120.814 214.676 120.814 215.124C120.814 215.572 121.178 215.936 121.64 215.936ZM121.066 224H122.2V217.182H121.066V224ZM121.64 225.316C121.178 225.316 120.814 225.68 120.814 226.128C120.814 226.576 121.178 226.94 121.64 226.94C122.102 226.94 122.466 226.576 122.466 226.128C122.466 225.68 122.102 225.316 121.64 225.316ZM130.146 224.084C130.958 224.084 131.42 223.888 131.798 223.664L131.504 222.67C131.168 222.852 130.748 223.02 130.342 223.02C129.698 223.02 129.516 222.628 129.516 221.802V218.162H131.77V217.182H129.516V214.732L128.382 214.858V217.182H127.5V218.162H128.382V221.97C128.382 223.342 128.942 224.084 130.146 224.084ZM136.969 216.188L135.415 214.27L134.127 214.256L135.821 216.188H136.969ZM140.007 216.09V217.056C140.007 218.064 139.881 218.652 139.097 218.806V217.182H137.963V220.486C137.963 222.11 137.025 223.048 135.933 223.048C134.855 223.048 134.267 222.46 134.267 220.92V217.182H133.133V221.242C133.133 223.188 134.127 224.084 135.695 224.084C136.591 224.084 137.431 223.636 137.949 222.824H137.963V224H139.097V219.59C140.441 219.52 141.169 218.68 141.169 217.112V216.09H140.007ZM149.27 224.084C150.6 224.084 151.51 223.58 152.084 222.894L151.3 222.18C150.88 222.698 150.166 223.048 149.354 223.048C147.968 223.048 147.03 222.054 147.03 220.598C147.03 219.156 147.968 218.134 149.368 218.134C150.18 218.134 150.852 218.498 151.286 219.002L152.056 218.316C151.384 217.518 150.334 217.098 149.312 217.098C147.282 217.098 145.868 218.54 145.868 220.598C145.868 222.67 147.282 224.084 149.27 224.084ZM153.603 224H154.737V220.57C154.737 219.03 155.577 218.134 156.935 218.134C157.929 218.134 158.615 218.694 158.615 220.234V224H159.749V219.912C159.749 217.966 158.741 217.098 157.271 217.098C156.179 217.098 155.283 217.56 154.751 218.372H154.737V213.696H153.603V224ZM166.554 214.998H167.45L169.186 213.01H167.898L166.554 214.998ZM162.662 216.216H163.824L164.846 214.97H164.874L165.882 216.216H167.016L165.462 214.256H164.272L162.662 216.216ZM164.832 224.084C166.848 224.084 168.346 222.67 168.346 220.598C168.346 218.526 166.848 217.098 164.832 217.098C162.718 217.098 161.304 218.638 161.304 220.598C161.304 222.558 162.718 224.084 164.832 224.084ZM164.832 223.048C163.418 223.048 162.466 221.956 162.466 220.598C162.466 219.24 163.404 218.134 164.832 218.134C166.148 218.134 167.184 219.142 167.184 220.598C167.184 222.054 166.134 223.048 164.832 223.048ZM170.695 215.936C171.157 215.936 171.521 215.572 171.521 215.124C171.521 214.676 171.157 214.312 170.695 214.312C170.233 214.312 169.869 214.676 169.869 215.124C169.869 215.572 170.233 215.936 170.695 215.936ZM170.121 224H171.255V217.182H170.121V224Z" fill="white"/>
<path d="M59.472 121.888C58.704 121.888 57.648 122.048 56.624 122.368L56.912 117.44H65.328V114.016H53.424L52.784 125.536L54.8 126.24C55.856 125.376 57.04 125.088 58.384 125.088C60.464 125.088 62.64 126.432 62.64 128.896C62.64 131.136 61.008 132.832 58.32 132.832C56.368 132.832 54.768 131.904 53.84 130.56L51.152 132.704C52.88 135.008 55.632 136.256 58.64 136.256C63.312 136.256 66.416 133.28 66.416 128.96C66.416 124.544 63.28 121.888 59.472 121.888ZM83.441 136H86.865L93.073 120.384H89.265L85.201 131.52H85.169L81.105 120.384H77.265L83.441 136ZM98.0708 118.08C99.4148 118.08 100.503 116.992 100.503 115.68C100.503 114.4 99.4148 113.312 98.0708 113.312C96.7268 113.312 95.6708 114.4 95.6708 115.68C95.6708 116.992 96.7268 118.08 98.0708 118.08ZM96.2788 136H99.8628V120.384H96.2788V136ZM111.75 115.808H111.814L113.542 118.272H117.03L113.67 113.632H109.926L106.438 118.272H109.99L111.75 115.808ZM119.046 128C119.046 123.456 116.07 120.16 111.686 120.16C107.11 120.16 103.846 123.392 103.846 128.192C103.846 133.088 107.206 136.256 111.942 136.256C115.302 136.256 117.254 135.008 118.566 133.312L116.07 131.168C115.27 132.16 113.99 132.992 112.134 132.992C109.702 132.992 108.006 131.648 107.558 129.376H118.95C118.982 129.12 119.046 128.576 119.046 128ZM111.654 123.392C113.702 123.392 114.982 124.672 115.43 126.56H107.622C108.134 124.512 109.67 123.392 111.654 123.392ZM111.91 138.496C110.566 138.496 109.478 139.584 109.478 140.896C109.478 142.176 110.566 143.264 111.91 143.264C113.254 143.264 114.31 142.176 114.31 140.896C114.31 139.584 113.254 138.496 111.91 138.496ZM129.782 136.256C133.174 136.256 135.19 135.04 136.502 133.344L134.038 131.168C133.238 132.224 131.83 132.992 130.102 132.992C127.35 132.992 125.462 131.072 125.462 128.192C125.462 125.344 127.318 123.392 130.102 123.392C131.798 123.392 133.142 124.128 134.038 125.184L136.47 123.072C134.902 121.152 132.342 120.16 129.91 120.16C125.174 120.16 121.814 123.424 121.814 128.224C121.814 132.992 125.174 136.256 129.782 136.256ZM148.56 136H152.144V112.448H148.56V136ZM163.455 118.272H167.007L163.487 113.696L159.487 113.664L163.455 118.272ZM163.647 136.256C165.823 136.256 167.487 135.424 168.607 133.92L168.671 133.952V136H172.095V120.384H168.511V122.272L168.447 122.304C167.327 120.896 165.599 120.16 163.615 120.16C159.327 120.16 156.095 123.552 156.095 128.256C156.095 133.088 159.327 136.256 163.647 136.256ZM164.223 132.992C161.567 132.992 159.743 131.04 159.743 128.288C159.743 125.28 161.727 123.392 164.223 123.392C166.783 123.392 168.671 125.504 168.671 128.288C168.671 131.104 166.655 132.992 164.223 132.992ZM176.617 136H180.201V128.224C180.201 125.152 181.801 123.392 183.945 123.392C186.057 123.392 187.049 125.056 187.049 127.872V136H190.633V128.224C190.633 125.152 192.265 123.392 194.281 123.392C196.393 123.392 197.321 125.056 197.321 127.872V136H200.905V126.976C200.905 122.304 198.857 120.16 195.433 120.16C193.129 120.16 191.145 121.056 189.833 122.752H189.769C188.841 120.992 187.209 120.16 185.097 120.16C183.305 120.16 181.513 120.992 180.233 122.528H180.201V120.384H176.617V136Z" fill="white"/>
<path d="M79.3333 29.0001H72.6666V27.6667C72.6666 26.196 71.4707 25 70 25H62C60.5293 25 59.3333 26.1959 59.3333 27.6667V29H52.6667C51.1959 29.0001 50 30.196 50 31.6667V35.6667C50 37.1374 51.1959 38.3334 52.6667 38.3334H63.3334V37.6667C63.3334 37.2982 63.6315 37 64 37H68C68.3685 37 68.6667 37.2982 68.6667 37.6667V38.3334H79.3334C80.804 38.3334 81.9999 37.1374 81.9999 35.6667V31.6667C81.9999 30.196 80.804 29.0001 79.3333 29.0001ZM70 29.0001H62V27.6667H70V29.0001Z" fill="white"/>
<path d="M81.6301 39.0528C81.4029 38.9402 81.1314 38.9663 80.9309 39.1186C80.4569 39.4773 79.9048 39.6668 79.3332 39.6668H68.6667V41.6668C68.6667 42.0353 68.3685 42.3334 68 42.3334H64C63.6315 42.3334 63.3333 42.0353 63.3333 41.6668V39.6668H52.6667C52.0951 39.6668 51.543 39.4773 51.069 39.1186C50.8678 38.965 50.597 38.9389 50.3697 39.0528C50.1432 39.1655 50 39.3966 50 39.6499V49.0001C50 50.4708 51.1959 51.6668 52.6667 51.6668H79.3333C80.804 51.6668 82 50.4709 82 49.0001V39.6499C81.9999 39.3966 81.8567 39.1655 81.6301 39.0528Z" fill="white"/>
<defs>
<linearGradient id="paint0_linear" x1="0" y1="252.353" x2="390" y2="252.353" gradientUnits="userSpaceOnUse">
<stop stop-color="#FEB685"/>
<stop offset="0.645833" stop-color="#FA8492"/>
</linearGradient>
<linearGradient id="paint1_linear" x1="390" y1="252.353" x2="-1.16229e-05" y2="252.353" gradientUnits="userSpaceOnUse">
<stop stop-color="#787CE0"/>
<stop offset="1" stop-color="#6AABF3"/>
</linearGradient>
</defs>
</svg>
