<svg width="640" height="338" viewBox="0 0 640 338" fill="none" xmlns="http://www.w3.org/2000/svg">
<path d="M99.5475 336.203C99.5475 336.203 29.7992 349.012 7.59807 300.552C-21.2068 237.683 37.973 190.014 83.3605 198.895C182.261 218.248 158.447 4.74841 317.17 48.3213C361.8 60.5725 482.389 -12.2105 516.019 104.493C524.016 132.243 552.351 135.299 593.483 152.908C673.982 187.37 637.176 336.783 579.655 337.37C522.136 337.957 99.5475 336.203 99.5475 336.203Z" fill="#EBF2F9"/>
<path d="M445.433 337.037H486.511V183.966H445.433V337.037Z" fill="#82B479"/>
<path d="M426.255 337.037H456.439V183.966H426.255V337.037Z" fill="#A8D29F"/>
<path d="M441.853 327.559C445.574 327.559 448.591 324.542 448.591 320.821C448.591 317.1 445.574 314.083 441.853 314.083C438.132 314.083 435.115 317.1 435.115 320.821C435.115 324.542 438.132 327.559 441.853 327.559Z" fill="#82B479"/>
<path d="M505.693 337.037H546.77V183.966H505.693V337.037Z" fill="#699DEE"/>
<path d="M486.513 337.037H516.696V183.966H486.513V337.037Z" fill="#AFCDFB"/>
<path d="M502.112 327.559C505.833 327.559 508.85 324.542 508.85 320.821C508.85 317.1 505.833 314.083 502.112 314.083C498.39 314.083 495.374 317.1 495.374 320.821C495.374 324.542 498.39 327.559 502.112 327.559Z" fill="#699DEE"/>
<path d="M508.85 199.544H495.374V279.887H508.85V199.544Z" fill="white"/>
<path d="M565.244 337.037H606.322V183.966H565.244V337.037Z" fill="#D86713"/>
<path d="M546.064 337.037H576.247V183.966H546.064V337.037Z" fill="#F1A34F"/>
<path d="M561.663 327.559C565.384 327.559 568.401 324.542 568.401 320.821C568.401 317.1 565.384 314.083 561.663 314.083C557.942 314.083 554.925 317.1 554.925 320.821C554.925 324.542 557.942 327.559 561.663 327.559Z" fill="#D86713"/>
<path d="M568.401 199.544H554.925V279.887H568.401V199.544Z" fill="white"/>
<path d="M448.085 200.57H434.609V280.913H448.085V200.57Z" fill="white"/>
<path d="M346.821 154.305L361.304 326.514C361.304 326.514 362.821 336.953 355.057 336.972C342.291 337.003 291.512 336.972 291.512 336.972C291.512 336.972 301.122 334.798 301.004 329.911C300.868 324.148 284.077 152.678 284.077 152.678L346.821 154.305Z" fill="#D86713"/>
<path d="M287.392 333.846C289.904 333.854 338.403 334.007 350.836 333.846C356.253 333.779 357.205 329.028 357.25 325.956C357.272 324.481 357.085 323.393 357.085 323.393L356.709 318.918L355.748 307.51L354.899 297.431L353.808 284.48L352.89 273.547L342.6 151.18L279.856 149.552C279.856 149.552 286.927 221.311 291.929 273.547C292.488 279.367 293.02 284.947 293.511 290.156C293.672 291.82 293.823 293.445 293.972 295.029C294.434 299.972 294.859 304.509 295.228 308.517C295.422 310.629 295.602 312.592 295.765 314.39C296.402 321.435 296.776 325.934 296.781 326.787C296.783 327.286 296.74 327.751 296.659 328.182C295.63 333.667 288.336 333.846 287.392 333.846Z" fill="#EE9849"/>
<path d="M197.962 60.5941H499.202L463.922 202.301L459.093 221.709L442.663 287.711H137.399L197.962 60.5941Z" fill="#F1A34F"/>
<path d="M499.202 60.5941L504.092 62.2241L449.162 292.642L442.661 287.714L499.202 60.5941Z" fill="#EE9849"/>
<path d="M449.162 292.642H145.779L137.401 287.714H442.661L449.162 292.642Z" fill="#D86713"/>
<path d="M342.624 333.916H276.936V337.037H342.624V333.916Z" fill="#F1A34F"/>
<path d="M293.634 292.642L293.974 295.027L355.748 307.508L354.901 297.429L354.496 292.642H293.634Z" fill="#D86713"/>
<path opacity="0.4" d="M287.392 333.846C289.904 333.854 338.403 334.007 350.836 333.846C356.253 333.779 357.205 329.028 357.25 325.955L295.767 314.387C296.405 321.432 296.779 325.931 296.783 326.785C296.786 327.283 296.743 327.748 296.661 328.18C295.63 333.667 288.336 333.846 287.392 333.846Z" fill="#D86713"/>
<path opacity="0.4" d="M312.532 243.093L442.663 287.711L453.776 243.067L312.532 243.093Z" fill="#D86713"/>
<path d="M197.962 60.5941H499.201L453.802 243.067L149.087 243.124L197.962 60.5941Z" fill="#F1A34F"/>
<path d="M281.939 266.2C282.809 261.725 287.143 258.096 291.62 258.096C296.098 258.096 299.02 261.725 298.15 266.2C297.28 270.678 292.946 274.305 288.468 274.305C283.993 274.305 281.069 270.676 281.939 266.2Z" fill="#D86713"/>
<path d="M163.294 235.217H445.346L477.288 107.971L479.735 98.2128L481.826 89.888L486.725 70.3715H208.736L203.357 89.888L201.063 98.2128L198.374 107.971L163.294 235.217Z" fill="#E9F3FE"/>
<path d="M208.736 70.3715H486.725L481.826 89.888H203.358L208.736 70.3715Z" fill="#A8D29F"/>
<path d="M473.393 76.7524C474.74 76.7524 475.56 77.8454 475.224 79.1925C474.889 80.5396 473.525 81.6327 472.175 81.6327C470.828 81.6327 470.008 80.5396 470.344 79.1925C470.68 77.8454 472.046 76.7524 473.393 76.7524Z" fill="#E9F3FE"/>
<path d="M465.286 76.7524C466.633 76.7524 467.453 77.8454 467.118 79.1925C466.782 80.5396 465.418 81.6327 464.069 81.6327C462.719 81.6327 461.902 80.5396 462.237 79.1925C462.575 77.8454 463.939 76.7524 465.286 76.7524Z" fill="#E9F3FE"/>
<path d="M453.51 79.1925C453.845 77.8454 455.209 76.7523 456.559 76.7523C457.906 76.7523 458.726 77.8454 458.39 79.1925C458.055 80.5396 456.691 81.6326 455.341 81.6326C453.992 81.6326 453.174 80.5396 453.51 79.1925Z" fill="#E9F3FE"/>
<path d="M61.4713 319.493C61.4713 319.493 57.8805 322.82 58.5805 325.186C59.2804 327.549 62.5212 329.127 62.9598 332.017C63.3985 334.908 65.1483 336.483 66.7255 336.483C68.3028 336.483 74.2402 336.483 74.2402 336.483C74.2402 336.483 75.4003 334.45 72.5982 333.837C69.7961 333.223 68.739 329.829 68.914 326.675C69.089 323.522 68.6503 319.318 68.6503 319.318L62.6961 317.918L61.4713 319.493Z" fill="#233862"/>
<path d="M126.565 336.476H106.609C106.437 336.44 106.305 336.402 106.221 336.359C104.891 335.695 105.305 330.606 105.466 329.029C105.497 328.736 105.519 328.563 105.519 328.563C105.519 328.563 112.525 322.959 113.489 327.252C113.518 327.387 113.554 327.518 113.592 327.648C114.802 331.663 120.241 333.487 123.384 333.995C125.778 334.383 126.402 335.776 126.565 336.476Z" fill="#233862"/>
<path d="M122.549 221.589C122.549 221.589 121.485 234.864 120.234 250.821C118.534 272.497 116.49 299.123 116.288 304.167C115.938 312.925 114.536 326.936 114.536 326.936C114.536 326.936 111.211 330.265 104.552 328.861C104.552 328.861 98.6199 308.86 96.9252 287.699C96.8988 287.352 96.8725 287.004 96.8461 286.654C95.2689 265.112 92.8191 219.749 92.8191 219.749L122.549 221.589Z" fill="#699DEE"/>
<path d="M122.549 221.589C122.549 221.589 121.485 234.864 120.234 250.821L96.9252 287.699C96.8988 287.352 96.8725 287.004 96.8461 286.654C95.2689 265.112 92.8191 219.749 92.8191 219.749L122.549 221.589Z" fill="#4A75CB"/>
<path d="M117.69 223.167C117.69 223.167 98.512 271.244 85.9037 293.836C73.293 316.427 69.3523 322.734 69.3523 322.734C69.3523 322.734 62.1277 319.843 61.4709 317.873C61.4709 317.873 66.2937 274.257 74.7384 263.624C79.5109 257.617 85.1151 239.586 85.3788 233.28C85.6424 226.976 87.0854 214.497 87.0854 214.497L117.69 223.167Z" fill="#699DEE"/>
<path d="M137.085 209.894L138.18 212.08C138.18 212.08 143.754 212.859 142.219 218.67C142.219 218.67 141.392 221.06 139.856 220.305C138.319 219.547 139.077 219.612 136.872 218.593C134.669 217.574 133.394 215.618 133.887 213.825L133.535 211.925L137.085 209.894Z" fill="#FFB27D"/>
<path d="M107.856 148.955C108.709 143.922 108.735 140.937 108.735 140.937L99.0058 133.097C99.3677 143.878 92.4572 149.063 92.4572 149.063C92.4572 149.063 105.423 155.446 112.918 153.083C112.918 153.083 111.072 150.724 107.856 148.955Z" fill="#FFB27D"/>
<path d="M111.027 140.76C111.027 140.76 98.6489 142.817 97.4863 135.089C96.3238 127.361 93.9436 122.42 101.799 120.781C109.654 119.141 111.636 121.859 112.65 124.343C113.666 126.828 114.217 140.026 111.027 140.76Z" fill="#FFB27D"/>
<path d="M97.5679 135.621C97.5679 135.621 97.8172 125.268 109.098 123.607C116.823 122.468 112.144 116.013 111.262 114.992C111.262 114.992 105.356 116.119 99.3129 117.447C86.6232 120.229 96.2256 134.082 97.5679 135.621Z" fill="#163560"/>
<path d="M135.786 212.932C137.44 211.235 138.669 209.022 138.669 209.022C138.669 209.022 124.606 191.548 123.463 189.736C122.319 187.924 113.779 158.857 113.779 158.857L92.1792 154.48C92.1792 154.48 110.21 191.677 113.196 196.212C118.132 203.706 132.897 214.859 132.897 214.859C132.897 214.859 134.486 214.264 135.786 212.932Z" fill="#82B479"/>
<path d="M123.376 222.695C123.151 222.881 122.89 222.994 122.588 222.994C119.774 222.956 111.566 224.519 104.622 223.807C98.7686 223.246 93.5863 221.51 88.0228 219.017C87.2845 218.687 85.5826 217.778 85.621 216.954C85.645 216.05 85.7361 214.739 85.8487 213.087C86.2418 207.344 86.9298 197.466 86.261 186.068C86.1411 183.947 86.0764 181.842 86.0692 179.769C86.0117 164.322 89.0224 150.662 95.1755 146.064C95.7004 145.688 98.9819 147.342 101.947 148.804C104.687 150.156 106.602 150.125 109.191 149.6L112.604 152.069C115.756 154.996 119.21 158.975 120.711 165.015C121.988 170.157 122.736 179.426 123.151 189.033C123.338 193.386 123.489 197.778 123.527 201.944V202.092C123.563 202.504 123.563 202.955 123.563 203.37C123.717 214.063 123.563 222.544 123.376 222.695Z" fill="#A8D29F"/>
<path d="M85.8511 213.085C86.2442 207.342 86.9321 197.464 86.2634 186.066C86.1435 183.944 86.0788 181.84 86.0716 179.766C88.634 173.546 90.7314 169.037 90.7314 169.037H97.1938C97.1938 169.037 101.93 201.397 85.8511 213.085Z" fill="#82B479"/>
<path d="M73.2787 215.096L72.0514 217.21C72.0514 217.21 74.4557 222.299 68.7532 224.2C68.7532 224.2 66.301 224.818 66.0901 223.119C65.8791 221.419 66.2411 222.088 65.8863 219.686C65.5292 217.284 66.4688 215.146 68.2378 214.576L69.6353 213.238L73.2787 215.096Z" fill="#FFB27D"/>
<path d="M70.029 215.674C72.3565 216.127 74.8782 215.945 74.8782 215.945C74.8782 215.945 81.7864 194.604 82.6757 192.655C83.565 190.707 103.197 167.633 103.197 167.633L95.0179 147.167C95.0179 147.167 73.7852 182.633 71.6302 187.617C68.0683 195.853 66.8314 214.315 66.8314 214.315C66.8314 214.315 68.2001 215.319 70.029 215.674Z" fill="#A8D29F"/>
<path d="M317.904 206.459H186.228L231.242 24.3488H362.917L317.904 206.459Z" fill="#AFCDFB"/>
<path d="M298.236 195.098H166.561L211.575 12.9846H343.25L298.236 195.098Z" fill="#C0D8F9"/>
<path d="M276.924 182.111H145.249L190.263 0H321.938L276.924 182.111Z" fill="#D4E3F4"/>
<path d="M340.567 24.3488L298.907 194.007L189.438 195.098L302.213 197.578L340.567 24.3488Z" fill="#699DEE"/>
<path d="M318.697 12.9846L279.118 181.022L169.648 182.111L280.975 184.862L318.697 12.9846Z" fill="#699DEE"/>
<path d="M222.064 63.1109H185.241L196.768 16.851H233.593L222.064 63.1109Z" fill="#E9F3FE"/>
<path d="M306.134 23.2414H240.156L241.779 16.851H307.757L306.134 23.2414Z" fill="#AFCDFB"/>
<path d="M303.159 36.3627H237.179L238.804 29.9722H304.782L303.159 36.3627Z" fill="#AFCDFB"/>
<path d="M300.048 49.4839H234.068L235.693 43.0935H301.671L300.048 49.4839Z" fill="#AFCDFB"/>
<path d="M296.395 62.6052H230.417L232.04 56.2148H298.018L296.395 62.6052Z" fill="#AFCDFB"/>
<path d="M296.395 76.2681H175.615L177.24 69.8753H298.018L296.395 76.2681Z" fill="#AFCDFB"/>
<path d="M293.171 89.9288H172.391L174.013 83.5384H294.794L293.171 89.9288Z" fill="#AFCDFB"/>
<path d="M288.708 105.315H167.927L169.55 98.9248H290.331L288.708 105.315Z" fill="#AFCDFB"/>
<path d="M284.65 118.599H163.869L165.492 112.209H286.273L284.65 118.599Z" fill="#AFCDFB"/>
<path d="M225.28 67.7132C225.28 67.7132 227.44 66.7281 228.284 67.0301C229.128 67.3321 231.414 68.3173 231.362 69.3073C231.309 70.2972 227.641 71.3927 225.189 70.1942C222.737 68.9932 225.28 67.7132 225.28 67.7132Z" fill="#E49963"/>
<path d="M225.921 70.4243C225.882 70.5466 225.832 70.6616 225.767 70.7671C225.041 71.9368 213.07 71.9968 211.704 71.014C211.093 70.5753 210.906 64.5181 210.886 57.9575C210.863 49.846 211.095 40.9603 211.095 40.9603C211.095 40.9603 215.779 43.1344 216.007 45.8094C216.234 48.4845 214.266 64.5612 215.633 65.544C217.001 66.5268 223.31 66.6538 225.415 67.2723C225.415 67.2699 226.309 69.1947 225.921 70.4243Z" fill="#A8D2A0"/>
<path d="M213.811 22.5152C212.991 21.6618 211.654 21.5827 210.793 21.5228C211.042 21.3239 211.486 21.2975 211.486 21.2975C210.966 21.1489 209.714 21.5228 209.714 21.5228C209.714 21.5228 205.532 18.6488 202.696 24.2626C202.696 24.2626 203.111 23.8647 203.667 23.4236C202.03 26.6524 202.578 31.9282 206.236 33.3281C208.614 34.2366 222.205 31.2547 213.811 22.5152Z" fill="#163560"/>
<path d="M211.277 42.2976C211.301 42.312 208.746 43.2444 207.011 42.5181C205.378 41.8374 204.556 39.4979 204.58 39.4979C205.316 39.4476 205.649 38.4912 206.184 34.2532L206.5 34.3587L211.809 36.1445C211.809 36.1445 211.464 37.844 211.251 39.4595C211.069 40.8163 210.985 42.1131 211.277 42.2976Z" fill="#E49963"/>
<path d="M211.807 36.147C211.807 36.147 211.462 37.8464 211.248 39.462C208.209 38.9802 206.958 35.9888 206.498 34.3636L211.807 36.147Z" fill="#D68D5D"/>
<path d="M206.013 33.6949C206.013 33.6949 204.743 30.9624 204.64 28.7547C204.565 27.1775 206.092 21.5661 211.728 23.1337C211.728 23.1337 213.375 23.5148 214.806 24.7757C215.944 25.78 217.507 27.8295 214.849 32.5564L214.108 34.1719L206.013 33.6949Z" fill="#163560"/>
<path d="M212.627 37.8081C212.627 37.8081 205.397 36.9907 205.975 32.4963C206.553 28.0019 206.008 24.869 210.649 25.1998C215.29 25.5306 215.966 27.3619 216.136 28.908C216.308 30.4564 214.523 37.904 212.627 37.8081Z" fill="#E49963"/>
<path d="M213.104 47.9882C213.044 47.4608 214.173 47.2139 214.379 47.7053C214.765 48.6234 214.722 49.714 214.808 50.5985C215.055 53.1226 214.056 56.4041 214.056 56.4041L213.104 47.9882Z" fill="#82B479"/>
<path d="M216.246 26.3816C215.309 24.8883 214.427 25.0728 213.902 25.4156C212.646 22.8844 207.279 25.6146 207.279 25.6146C206.378 28.7762 203.813 30.3223 203.813 30.3223C203.813 30.3223 205.023 31.305 208.156 30.9191C210.623 30.6147 212.795 27.4435 213.607 26.1059C213.986 26.5422 214.777 27.5417 214.937 28.4406C215.148 29.6319 215.005 32.0098 215.702 32.017C215.705 32.017 217.656 28.6276 216.246 26.3816Z" fill="#163560"/>
<path d="M211.378 34.8766C211.378 34.8766 211.438 35.4638 212.871 35.5621C212.871 35.5621 214.072 35.6436 214.118 35.0108C214.115 35.0084 213.018 34.4115 211.378 34.8766Z" fill="white"/>
<path d="M225.921 70.4242C225.882 70.5465 225.832 70.6615 225.767 70.767C225.041 71.9367 213.07 71.9967 211.704 71.0139C211.093 70.5752 210.896 63.0486 212.579 56.5575C212.979 60.4455 212.246 68.2214 214.281 68.8542C216.589 69.5757 222.891 69.5901 225.921 70.4242Z" fill="#82B479"/>
<path d="M214.458 56.7637C209.707 70.4818 211.872 72.9627 210.174 74.1516C210.165 74.1564 208.751 74.5639 208.741 74.5687C206.979 75.7361 207.157 74.0677 201.898 75.5803C199.393 76.3018 196.178 77.2678 193.417 77.7304C192.377 77.903 191.403 78.006 190.557 77.994C188.935 77.9749 187.777 77.541 187.527 76.4096C186.804 73.1233 193.314 65.4912 192.693 59.6257C192.688 59.5754 192.683 59.5251 192.679 59.4747C192.645 58.9642 192.7 58.3913 192.832 57.7704C193.496 54.6304 196.099 50.275 198.686 46.6076C201.543 42.559 204.378 39.3446 204.575 39.498C210.158 43.8702 211.09 40.9578 211.09 40.9578C211.09 40.9578 216.078 52.0847 214.458 56.7637Z" fill="#A8D2A0"/>
<path d="M209.245 74.4322C209.237 74.4394 209.257 74.425 209.245 74.4322C207.483 75.5995 207.152 74.0678 201.895 75.578C199.39 76.2995 196.176 77.2655 193.415 77.7281C192.027 77.788 190.991 77.8671 190.555 77.9918C188.932 77.9726 187.775 77.5387 187.525 76.4073C186.801 73.121 193.312 65.4889 192.691 59.6234C192.686 59.5731 192.681 59.5228 192.676 59.4724C192.633 58.8947 192.691 58.3314 192.83 57.7681C193.429 55.3927 195.541 53.0077 198.043 49.4577C199.204 51.0517 209.508 50.7137 205.304 64.4318C204.019 68.6386 209.05 71.0141 209.245 74.4322Z" fill="#82B479"/>
<path d="M208.662 75.0865C208.662 75.0865 210.956 74.8468 211.92 75.3933C212.883 75.9398 214.784 77.2605 214.52 77.7999C214.259 78.3416 211.807 78.3296 210.862 77.6321C209.918 76.9345 209.072 77.553 207.881 76.9777C206.689 76.4024 208.662 75.0865 208.662 75.0865Z" fill="#E49963"/>
<path d="M204.58 39.498C204.58 39.498 196.36 38.544 194.376 42.3121C192.391 46.0802 191.042 60.0524 192.648 64.5156C194.254 68.9789 205.738 76.2203 207.066 76.6206C208.393 77.0233 209.513 75.0409 209.486 74.806C209.46 74.5735 198.019 62.5645 198.216 61.4978C198.41 60.4335 204.58 39.498 204.58 39.498Z" fill="#A8D2A0"/>
<path d="M479.167 314.893L476.233 327.259L471.835 327.233L471.674 314.893H479.167Z" fill="#E49963"/>
<path d="M442.177 315.421L433.823 327.259L430.568 323.079L435.595 313.793L442.177 315.421Z" fill="#E49963"/>
<path d="M463.896 152.402C465.413 151.539 467.233 151.446 468.505 151.52C468.177 151.182 467.532 151.057 467.532 151.057C468.321 150.94 470.083 151.724 470.083 151.724C481.059 147.493 482.784 163.656 482.554 167.412C482.324 171.166 486.243 172.393 491.953 175.351C502.85 180.996 503.806 188.554 503.806 188.554C503.722 188.604 503.634 188.662 503.538 188.726C502.996 187.811 501.884 186.09 500.947 185.831C500.983 185.915 502.056 188.199 502.457 189.508C499.242 191.953 493.228 197.373 489.038 201.213C489.057 200.462 489.026 199.396 488.753 198.832L488.235 201.951C485.992 204.012 484.446 205.462 484.446 205.462C484.724 202.428 470.723 186.416 463.419 181.619C461.64 179.002 461.01 174.378 460.962 174.014C461.269 177.681 461.897 179.738 462.458 180.895C456.271 175.203 459.871 154.689 463.896 152.402Z" fill="#163560"/>
<path d="M463.85 181.859C463.815 181.876 467.376 183.726 470.056 182.993C472.578 182.305 474.225 179.035 474.191 179.028C473.125 178.817 472.815 177.35 472.839 171.044L472.358 171.14L464.241 172.746C464.241 172.746 464.426 175.301 464.431 177.705C464.435 179.728 464.313 181.643 463.85 181.859Z" fill="#E49963"/>
<path d="M464.239 172.748C464.239 172.748 464.423 175.303 464.428 177.707C468.97 177.58 471.37 173.436 472.353 171.14L464.239 172.748Z" fill="#D68D5D"/>
<path d="M473.194 170.257C473.194 170.257 475.574 166.496 476.145 163.282C476.552 160.986 475.383 152.476 466.832 153.704C466.832 153.704 464.349 153.948 462.014 155.525C460.157 156.779 457.479 159.485 460.473 166.911L461.252 169.418L473.194 170.257Z" fill="#163560"/>
<path d="M431.893 319.833L436.196 319.965L440.853 320.109C440.853 320.109 451.609 308.134 457.642 288.936C457.784 288.49 457.932 288.039 458.088 287.582C461.389 277.953 468.235 265.869 471.842 254.929C472.417 253.187 472.933 251.547 473.395 249.994C473.544 249.498 473.688 249.009 473.824 248.527C476.483 239.291 477.252 233.227 477.962 226.748L451.913 226.956C451.913 226.956 447.707 271.2 431.893 319.833Z" fill="#2B478B"/>
<path d="M455.559 211.99C455.624 224.385 453.74 229.704 453.74 229.704C453.74 229.704 464.893 235.37 478.146 231.199C478.302 231.151 488.115 229.181 488.115 229.181C487.893 228.68 485.186 220.103 484.971 219.646C482.171 213.636 481.787 210.722 481.457 208.873C480.841 205.424 480.826 201.855 481.135 198.49C481.943 189.58 484.35 182.183 484.35 182.183C480.737 181.36 477.355 179.917 473.597 178.508C472.731 179.584 470.09 180.711 467.796 180.661C465.157 180.603 464.299 179.472 464.438 178.237C461.624 179.802 459.38 181.281 459.38 181.281C456.988 185.435 452.139 189.47 451.789 195.841C451.698 197.404 455.557 211.642 455.559 211.99Z" fill="#E7F1FD"/>
<path d="M440.436 193.576C444.26 189.11 454.167 179.421 464.39 178.232L455.569 195.419C455.569 195.419 455.073 198.365 452.46 200.081C446.06 204.286 437.924 206.146 437.924 206.146C437.924 206.146 432.414 203.741 424.882 198.223C422.519 196.49 418.365 189.884 418.365 189.884L419.484 186.135C419.484 186.135 426.536 190.078 429.055 191.217C430.491 191.864 433.797 193.413 436.127 194.506C437.61 195.201 439.372 194.82 440.436 193.576Z" fill="#699DEE"/>
<path d="M462.724 175.025C462.724 175.025 473.47 175.202 473.477 168.51C473.484 161.818 474.877 157.333 468.016 156.935C461.156 156.537 459.821 159.092 459.275 161.324C458.728 163.558 459.929 174.807 462.724 175.025Z" fill="#E49963"/>
<path d="M463.122 156.772C463.122 156.772 466.063 164.624 470.579 165.785C475.095 166.945 477.053 165.737 477.053 165.737C477.053 165.737 473.59 162.985 472.871 158.184C472.868 158.184 465.339 153.035 463.122 156.772Z" fill="#163560"/>
<path d="M463.851 157.409C463.851 157.409 461.653 159.162 461.118 160.866C460.584 162.57 460.341 166.079 459.318 165.96C459.318 165.96 457.101 160.621 459.591 157.604C462.235 154.404 463.851 157.409 463.851 157.409Z" fill="#163560"/>
<path d="M419.487 186.135C419.487 186.135 417.972 180.675 411.97 181.447C411.282 181.662 409.268 182.465 410.555 184.62C411.505 186.209 411.915 185.39 413.405 187.523C414.896 189.656 416.517 190.141 418.365 189.884L419.487 186.135Z" fill="#E49963"/>
<path d="M476.38 326.567C476.38 326.567 476.025 329.017 476.941 331.636C476.941 331.636 477.66 334.915 474.431 334.978C471.202 335.038 470.409 334.733 470.776 332.722C471.142 330.711 471.837 327.233 471.837 327.233L476.38 326.567Z" fill="#E49963"/>
<path d="M470.469 336.378C470.469 336.378 470.538 336.421 470.673 336.485H476.996C477.118 336.421 477.176 336.378 477.176 336.378C477.54 334.731 476.943 331.636 476.943 331.636C473.285 334.987 470.996 331.552 470.996 331.552C470.399 332.986 470.469 336.378 470.469 336.378Z" fill="#D86713"/>
<path d="M422.785 333.05C422.785 333.05 428.739 326.442 430.568 323.077L434.995 325.344L425.098 334.64L422.783 334.335L422.785 333.05Z" fill="#E49963"/>
<path d="M419.089 336.485H427.236C428.022 335.898 428.753 334.542 429.664 332.72C430.148 331.749 431.242 331.212 432.361 330.917V336.421H434.051L435.652 330.57C436.704 328.633 435.736 326.876 434.993 325.344C434.13 325.342 431.81 325.934 427.411 330.888C425.963 332.516 424.367 333.099 422.782 333.048C422.761 333.063 422.737 333.075 422.718 333.082C420.064 334.278 419.307 335.762 419.089 336.485Z" fill="#D86713"/>
<path d="M464.435 178.235C464.435 178.235 458.218 193.592 458.035 196.701C457.853 199.81 457.304 247.528 457.304 247.528C457.304 247.528 457.671 249.721 453.464 248.808C449.26 247.894 448.162 246.979 448.162 246.979C448.162 246.979 452.184 217.543 451.086 207.306C449.989 197.068 459.498 180.368 459.498 180.368L464.435 178.235Z" fill="#699DEE"/>
<path d="M436.194 319.965L440.851 320.109C440.851 320.109 451.606 308.134 457.64 288.936C457.781 288.49 457.93 288.04 458.086 287.582C461.386 277.953 468.232 265.87 471.84 254.93C472.415 253.187 472.93 251.547 473.393 249.994C473.542 249.498 473.685 249.009 473.822 248.527L469.987 245.617C469.987 245.617 458.471 264.266 454.905 281.814C451.808 297.059 439.406 315.404 436.194 319.965Z" fill="#233862"/>
<path d="M469.586 283.452C469.522 291.985 469.953 311.607 471.063 319.73H475.188C477.468 319.73 478.606 319.697 478.606 319.697C481.394 305.574 483.379 293.888 484.822 283.816C486.006 275.551 487.061 268.468 487.871 262.368C488.686 256.229 489.254 251.09 489.455 246.749C489.486 246.065 489.51 245.399 489.522 244.754C489.534 244.105 489.539 243.474 489.534 242.863L467.029 240.67C467.309 255.622 469.622 278.49 469.586 283.452Z" fill="#2B478B"/>
<path d="M475.188 319.728C477.468 319.728 478.606 319.694 478.606 319.694C481.394 305.571 483.379 293.886 484.822 283.814C486.006 275.549 487.061 268.465 487.871 262.365C488.686 256.226 489.254 251.087 489.455 246.746L481.198 251.605C481.198 251.605 486.469 253.465 484.458 267.543C482.444 281.623 477.988 317.736 475.188 319.728Z" fill="#233862"/>
<path d="M474.124 246.612C474.124 246.612 475.709 252.341 481.193 251.61C486.677 250.879 494.477 247.587 494.477 247.587C494.477 247.587 492.133 240.181 489.218 230.451C485.69 218.672 481.322 203.487 479.263 193.909C478.686 191.224 478.29 188.983 478.144 187.379L473.595 178.551C473.595 178.551 466.811 193.779 466.444 197.617C466.08 201.452 474.124 246.612 474.124 246.612Z" fill="#699DEE"/>
<path d="M474.369 205.659C474.613 211.874 476.075 223.941 489.117 230.401C489.151 230.418 489.187 230.437 489.221 230.451C485.692 218.672 481.325 203.487 479.266 193.909C476.871 197.485 474.234 202.236 474.369 205.659Z" fill="#4A75CB"/>
<path d="M401.025 154.986L396.911 159.099L413.267 175.456L417.381 171.342L401.025 154.986Z" fill="#2B478B"/>
<path d="M503.389 260.023L501.954 261.459C499.13 264.283 494.554 264.283 491.73 261.459L411.691 181.42C408.868 178.597 408.868 174.021 411.691 171.197L413.127 169.761C415.951 166.938 420.527 166.938 423.351 169.761L503.389 249.8C506.213 252.624 506.213 257.202 503.389 260.023Z" fill="#C65447"/>
<path d="M302.112 60.1795C275.397 86.8942 275.397 130.206 302.112 156.921C328.827 183.635 372.138 183.635 398.853 156.921C425.568 130.206 425.568 86.8942 398.853 60.1795C372.138 33.4648 328.827 33.4648 302.112 60.1795ZM393.525 151.592C369.753 175.363 331.212 175.363 307.441 151.592C283.669 127.821 283.669 89.2792 307.441 65.508C331.212 41.7369 369.753 41.7369 393.525 65.508C417.296 89.2792 417.296 127.821 393.525 151.592Z" fill="#C65447"/>
<path d="M479.601 197.042L473.594 178.546C473.611 178.553 481.179 180.799 484.987 182.722C484.987 182.722 487.368 185.79 488.839 192.868C488.839 192.868 490.395 209.863 486.922 216.079C486.922 216.079 475.953 218.272 458.4 212.239V208.216C458.4 208.216 477.597 209.223 481.529 209.679L479.601 197.042Z" fill="#E49963"/>
<path d="M473.597 178.546C473.597 178.546 484.731 179.33 487.411 185.303C490.093 191.277 490.946 211.143 487.533 216.994C487.533 216.994 482.835 218.332 474.524 216.779C474.424 216.759 474.321 216.74 474.218 216.721C474.218 216.721 471.566 210.23 473.944 208.95C473.944 208.95 480.953 209.317 480.222 206.999C479.489 204.683 473.597 178.546 473.597 178.546Z" fill="#699DEE"/>
<path d="M460.37 209.288C460.37 209.288 458.841 207.435 458.515 205.541C458.189 203.648 457.177 202.246 454.536 201.898C451.897 201.55 450.76 201.514 450.768 202.258C450.775 203.001 452.925 208.197 456.712 211.299C460.502 214.403 460.37 209.288 460.37 209.288Z" fill="#E49963"/>
<path opacity="0.4" d="M377.438 53.5374L295.916 135.06C297.246 137.752 298.768 140.333 300.468 142.783L385.161 58.0893C382.709 56.3898 380.13 54.8677 377.438 53.5374Z" fill="white"/>
<path opacity="0.4" d="M371.846 51.1188C365.208 48.6355 358.025 47.2764 350.522 47.2764C316.904 47.2764 289.652 74.528 289.652 108.146C289.652 115.649 291.014 122.833 293.495 129.47L371.846 51.1188Z" fill="white"/>
<path opacity="0.4" d="M323.56 162.728C331.689 166.751 340.84 169.016 350.524 169.016C384.142 169.016 411.394 141.764 411.394 108.146C411.394 98.4621 409.129 89.3103 405.107 81.1821L323.56 162.728Z" fill="white"/>
<path d="M11.0979 337.588H628.904C629.209 337.588 629.456 337.341 629.456 337.037C629.456 336.735 629.209 336.486 628.904 336.486H11.0979C10.7959 336.486 10.5466 336.732 10.5466 337.037C10.5466 337.341 10.7935 337.588 11.0979 337.588Z" fill="#283250"/>
</svg>
