<svg width="53" height="52" viewBox="0 0 53 52" fill="none" xmlns="http://www.w3.org/2000/svg">
<path d="M22.9502 38.262C24.6476 36.5646 24.6476 33.8119 22.9502 32.1145L16.8485 26.0128C15.151 24.3153 15.151 21.5627 16.8485 19.8652L35.0618 1.60608C25.7945 -1.78884 15.0134 0.183889 7.58126 7.66189C-2.55762 17.8466 -2.51174 34.2248 7.62714 44.4096C9.23284 46.0153 10.9762 47.3457 12.8113 48.4468L22.9502 38.262Z" fill="url(#paint0_radial)"/>
<path d="M29.0974 19.8653L35.245 26.0128C36.9425 27.7103 36.9425 30.4629 35.245 32.1604L16.9858 50.3737C26.2531 53.8145 37.0342 51.7959 44.4663 44.3179C54.6052 34.1331 54.5593 17.7549 44.4205 7.57016C42.8148 5.96445 41.0714 4.63401 39.2363 3.53296L29.0974 13.7636C27.4 15.4611 27.4 18.1678 29.0974 19.8653Z" fill="url(#paint1_radial)"/>
<defs>
<radialGradient id="paint0_radial" cx="0" cy="0" r="1" gradientUnits="userSpaceOnUse" gradientTransform="translate(17.5409 24.2121) scale(21.1363)">
<stop stop-color="white"/>
<stop offset="0.1061" stop-color="#DAF0FC"/>
<stop offset="0.2735" stop-color="#A6DBF7"/>
<stop offset="0.438" stop-color="#7AC9F4"/>
<stop offset="0.5961" stop-color="#59BCF1"/>
<stop offset="0.746" stop-color="#41B2EF"/>
<stop offset="0.8843" stop-color="#32ACED"/>
<stop offset="1" stop-color="#2DAAED"/>
</radialGradient>
<radialGradient id="paint1_radial" cx="0" cy="0" r="1" gradientUnits="userSpaceOnUse" gradientTransform="translate(34.5002 27.807) scale(21.1363)">
<stop stop-color="white"/>
<stop offset="0.0204857" stop-color="#F6F9FD"/>
<stop offset="0.1777" stop-color="#B9D0EE"/>
<stop offset="0.3337" stop-color="#84ACE1"/>
<stop offset="0.4846" stop-color="#588ED6"/>
<stop offset="0.6296" stop-color="#3778CE"/>
<stop offset="0.7671" stop-color="#1F67C8"/>
<stop offset="0.8939" stop-color="#105DC4"/>
<stop offset="1" stop-color="#0B5AC3"/>
</radialGradient>
</defs>
</svg>
