<svg width="150" height="38" viewBox="0 0 150 38" fill="none" xmlns="http://www.w3.org/2000/svg">
<path d="M1.85474 3.27671C3.04755 1.62513 4.88265 0.845215 7.31415 0.845215H20.6644V4.74478H8.23169C7.54353 4.74478 6.94713 4.88242 6.48835 5.20356C6.02958 5.5247 5.66256 5.84584 5.38729 6.25873C5.11203 6.67163 4.92852 7.08453 4.83677 7.5433C4.74501 8.00207 4.65326 8.32321 4.65326 8.59848H20.6186V10.5712C20.6186 13.7826 20.0221 16.2141 18.8293 17.8657C17.6365 19.5173 15.8014 20.2972 13.3699 20.2972H0.0196533V16.3976H12.4524C13.0947 16.3976 13.5993 16.26 14.0122 16.0306C14.4251 15.8012 14.7921 15.4801 15.0674 15.1131C15.3427 14.746 15.5721 14.3331 15.7097 13.8744C15.8473 13.4156 15.9391 12.9568 16.0308 12.498H0.0655334V10.5712C0.0655334 7.35979 0.661935 4.92829 1.85474 3.27671Z" fill="#2DAAED"/>
<path d="M47.5027 1.21223C48.7873 1.44162 49.8425 1.85451 50.6683 2.35916C51.4941 2.86382 52.0905 3.55197 52.4575 4.37777C52.8245 5.20356 53.008 6.21286 53.008 7.35979V20.2972H48.4662V8.46084C48.4662 7.91032 48.3744 7.35979 48.2368 6.90102C48.0533 6.44224 47.778 6.02935 47.3651 5.70821C46.9522 5.38707 46.4017 5.1118 45.6676 4.97417C44.9336 4.79066 44.0161 4.69891 42.8691 4.69891H41.8598V20.2513H37.318V4.69891H36.3087C35.1617 4.69891 34.2442 4.79066 33.5102 4.97417C32.7761 5.15768 32.2256 5.38707 31.8127 5.70821C31.3998 6.02935 31.1246 6.44224 30.941 6.90102C30.7575 7.35979 30.7117 7.86444 30.7117 8.46084V20.2972H26.1698V7.35979C26.1698 6.21286 26.3533 5.20356 26.7203 4.37777C27.0873 3.55197 27.6838 2.86382 28.5095 2.35916C29.3353 1.85451 30.3905 1.44162 31.6751 1.21223C32.9596 0.982846 34.5195 0.845215 36.3087 0.845215H42.8691C44.7042 0.845215 46.2182 0.982846 47.5027 1.21223Z" fill="#0B5AC3"/>
<path d="M77.7819 13.6908C77.7819 14.7918 77.5984 15.7553 77.2773 16.5811C76.9103 17.4069 76.3597 18.095 75.4881 18.6455C74.6623 19.1961 73.5612 19.609 72.1849 19.8842C70.8086 20.1595 69.1111 20.2971 67.0466 20.2971C65.0739 20.2971 63.4223 20.1595 62.0919 19.8383C60.7614 19.5631 59.7063 19.1043 58.9264 18.5538C58.1464 18.0033 57.55 17.3151 57.2289 16.4893C56.9078 15.6635 56.7242 14.746 56.7242 13.7367V7.31385C56.7242 6.25867 56.9078 5.34113 57.2748 4.51533C57.6418 3.68954 58.2382 3.00138 59.0181 2.45086C59.8439 1.90033 60.8991 1.48743 62.2754 1.16629C63.6058 0.891029 65.3033 0.70752 67.276 0.70752C69.2946 0.70752 70.9921 0.845152 72.3684 1.12042C73.6988 1.39568 74.7999 1.7627 75.5798 2.31322C76.4056 2.86375 76.9561 3.50603 77.2773 4.33183C77.5984 5.15762 77.7819 6.12104 77.7819 7.17622V13.6908ZM67.276 4.69884C65.0739 4.69884 63.5141 5.01998 62.5965 5.66227C61.679 6.30455 61.2202 7.13034 61.2202 8.23139V12.7274C61.2202 13.2779 61.312 13.7825 61.4955 14.2872C61.679 14.746 62.0001 15.1589 62.413 15.48C62.8259 15.8011 63.4223 16.0764 64.2022 16.214C64.9363 16.3975 65.8997 16.4893 67.0466 16.4893C68.3312 16.4893 69.3864 16.4434 70.1663 16.3058C70.9921 16.1682 71.5885 15.9388 72.0473 15.6635C72.506 15.3424 72.8272 14.9754 72.9648 14.4707C73.1483 13.9661 73.1942 13.3696 73.1942 12.6356V8.27727C73.1942 7.8185 73.1024 7.35973 72.9648 6.90095C72.8272 6.48806 72.5519 6.07516 72.139 5.7999C71.7261 5.47876 71.1297 5.24937 70.3498 5.06586C69.5699 4.7906 68.5606 4.69884 67.276 4.69884Z" fill="#0B5AC3"/>
<path d="M81.452 20.2972V0.845215H94.8482C97.2797 0.845215 99.1148 1.67101 100.308 3.27671C101.5 4.92829 102.097 7.31391 102.097 10.5712V20.2972H97.5549V9.65365C97.5549 9.19488 97.5091 8.64435 97.3714 8.09383C97.2797 7.5433 97.0503 6.99277 96.8209 6.48812C96.5457 5.98347 96.1786 5.57058 95.674 5.24943C95.1693 4.92829 94.5729 4.74478 93.8389 4.74478H85.948V20.2972H81.452Z" fill="#0B5AC3"/>
<path d="M110.538 13.4615C110.63 13.9202 110.814 14.3331 111.089 14.746C111.364 15.1589 111.731 15.5718 112.236 15.893C112.741 16.2141 113.383 16.3976 114.163 16.3976H125.036V20.2972H113.016C110.584 20.2972 108.749 19.4714 107.556 17.8198C106.364 16.1682 105.767 13.7367 105.767 10.5712C105.767 7.35979 106.364 4.92829 107.556 3.27671C108.749 1.62513 110.584 0.845215 113.016 0.845215H124.99V4.74478H114.117C113.383 4.74478 112.786 4.88242 112.328 5.20356C111.823 5.47882 111.456 5.84584 111.181 6.25873C110.905 6.67163 110.676 7.08453 110.584 7.5433C110.584 7.45154 109.804 10.0207 110.538 13.4615Z" fill="#0B5AC3"/>
<path d="M149.58 10.5712C149.58 13.7826 148.983 16.2141 147.79 17.8657C146.598 19.5173 144.762 20.2972 142.331 20.2972H132.926V16.3976H141.413C142.01 16.3976 142.56 16.26 142.973 16.0306C143.386 15.8012 143.753 15.4801 144.028 15.1131C144.304 14.746 144.533 14.3331 144.671 13.8744C144.808 13.4156 144.9 12.9568 144.946 12.498H136.183C133.752 12.498 131.917 11.6723 130.724 10.0665C129.531 8.41497 128.935 6.02935 128.935 2.77206V0.845215H133.477V3.68961C133.477 4.14838 133.523 4.69891 133.66 5.24943C133.752 5.79996 133.981 6.35049 134.211 6.85514C134.486 7.35979 134.853 7.77269 135.358 8.09383C135.816 8.41497 136.459 8.59848 137.239 8.59848H145.084V0.845215H149.625V10.5712H149.58Z" fill="#0B5AC3"/>
<path d="M125.035 8.59863H114.162V12.4982H125.035V8.59863Z" fill="#2DAAED"/>
<path d="M11.8557 35.162L9.79126 32.1799H10.4794L12.131 34.6573L13.7826 32.1799H14.4249L12.3604 35.162V37.1347H11.8099V35.162H11.8557Z" fill="#222222"/>
<path d="M19.2883 37.2262C18.9213 37.2262 18.5542 37.1803 18.279 37.0427C17.9578 36.905 17.7285 36.7215 17.4991 36.4921C17.2697 36.2627 17.0862 35.9875 16.9944 35.6663C16.8568 35.3452 16.8109 35.0241 16.8109 34.7029C16.8109 34.3818 16.8568 34.0606 16.9944 33.7395C17.1321 33.4184 17.2697 33.1431 17.4991 32.9137C17.7285 32.6843 18.0037 32.5008 18.279 32.3632C18.6001 32.2255 18.9213 32.1338 19.2883 32.1338C19.6553 32.1338 20.0223 32.1797 20.2976 32.3173C20.6187 32.4549 20.8481 32.6384 21.0775 32.8678C21.3069 33.0972 21.4904 33.3725 21.5821 33.6936C21.7198 34.0148 21.7657 34.3359 21.7657 34.657C21.7657 34.9782 21.7198 35.2993 21.5821 35.6205C21.4445 35.9416 21.3069 36.2169 21.0775 36.4463C20.8481 36.6756 20.5728 36.8591 20.2976 36.9968C20.0223 37.1344 19.6553 37.2262 19.2883 37.2262ZM19.3342 36.7215C19.6094 36.7215 19.8847 36.6756 20.1141 36.5839C20.3435 36.4921 20.5729 36.3545 20.7105 36.171C20.894 35.9875 21.0316 35.7581 21.1234 35.5287C21.2151 35.2993 21.261 35.0241 21.261 34.7488C21.261 34.4735 21.2151 34.1983 21.1234 33.9689C21.0316 33.7395 20.894 33.5101 20.7105 33.3266C20.527 33.1431 20.3435 33.0055 20.1141 32.8678C19.8847 32.7761 19.6094 32.6843 19.3342 32.6843C19.0589 32.6843 18.7836 32.7302 18.5543 32.8219C18.3249 32.9137 18.0955 33.0513 17.9578 33.2348C17.7743 33.4184 17.6367 33.6477 17.5449 33.8771C17.4532 34.1065 17.4073 34.3818 17.4073 34.657C17.4073 34.9323 17.4532 35.2076 17.5449 35.437C17.6367 35.6663 17.7743 35.8957 17.9578 36.0792C18.1414 36.2627 18.3249 36.4004 18.5543 36.538C18.7836 36.6298 19.013 36.7215 19.3342 36.7215Z" fill="#222222"/>
<path d="M26.6285 37.2257C26.3073 37.2257 26.0321 37.1798 25.8027 37.0881C25.5733 36.9963 25.3439 36.8587 25.1604 36.6752C24.9769 36.4917 24.8393 36.2623 24.7475 35.987C24.6557 35.7118 24.6099 35.3906 24.6099 35.0695V32.2251H25.1604V35.0695C25.1604 35.62 25.298 36.0329 25.5733 36.3082C25.8485 36.5834 26.2156 36.7211 26.6743 36.7211C27.1331 36.7211 27.5001 36.5834 27.7754 36.3082C28.0507 36.0329 28.1883 35.62 28.1883 35.0695V32.2251H28.7388V35.0236C28.7388 35.3906 28.6929 35.7118 28.6012 35.987C28.5094 36.2623 28.3718 36.4917 28.1883 36.6752C28.0048 36.8587 27.7754 36.9963 27.546 37.0881C27.2249 37.1798 26.9496 37.2257 26.6285 37.2257Z" fill="#222222"/>
<path d="M31.7206 32.2251H33.8309C34.1521 32.2251 34.4273 32.271 34.6567 32.3627C34.8861 32.4545 35.0696 32.5921 35.2531 32.7297C35.3908 32.8674 35.4825 33.005 35.5284 33.1426C35.5743 33.3262 35.6201 33.5097 35.6201 33.6932C35.6201 33.8767 35.5743 34.1061 35.5284 34.2437C35.4825 34.4272 35.3908 34.5648 35.2531 34.6566C35.1155 34.7942 34.9779 34.886 34.8402 34.9319C34.6567 35.0236 34.5191 35.0695 34.2897 35.1154L35.8037 37.134H35.1155L33.6474 35.2071H32.2711V37.134H31.7206V32.2251ZM33.7851 34.7025C33.9686 34.7025 34.1521 34.6566 34.2897 34.6107C34.4273 34.5648 34.565 34.519 34.7026 34.4272C34.7944 34.3355 34.8861 34.2437 34.9779 34.1061C35.0237 33.9684 35.0696 33.8308 35.0696 33.6932C35.0696 33.372 34.9779 33.1426 34.7485 32.9591C34.5191 32.7756 34.1979 32.6839 33.8309 32.6839H32.2711V34.7025H33.7851Z" fill="#222222"/>
<path d="M42.2722 32.2251H45.8048V32.7297H42.8227V34.4731H45.4836V34.9777H42.8227V37.134H42.2722V32.2251Z" fill="#222222"/>
<path d="M48.6036 32.2251H49.1542V37.134H48.6036V32.2251Z" fill="#222222"/>
<path d="M52.3202 32.2251H52.8248L55.9445 36.1705V32.2251H56.495V37.134H56.0362L52.8707 33.0968V37.134H52.3202V32.2251Z" fill="#222222"/>
<path d="M61.3578 32.1799H61.8625L64.1105 37.1347H63.5141L62.9177 35.8501H60.2568L59.6604 37.1347H59.1099L61.3578 32.1799ZM62.7342 35.3455L61.6331 32.8222L60.4862 35.3455H62.7342Z" fill="#222222"/>
<path d="M66.8169 32.2251H67.3215L70.4412 36.1705V32.2251H70.9917V37.134H70.533L67.3674 33.0968V37.134H66.8169V32.2251Z" fill="#222222"/>
<path d="M76.2675 37.2262C75.9005 37.2262 75.5794 37.1803 75.3041 37.0427C74.983 36.905 74.7536 36.7215 74.5242 36.4921C74.2948 36.2627 74.1113 35.9875 74.0196 35.6663C73.8819 35.3452 73.8361 35.0241 73.8361 34.657C73.8361 34.29 73.8819 33.9689 74.0196 33.6936C74.1572 33.3725 74.2948 33.0972 74.5242 32.8678C74.7536 32.6384 75.0289 32.4549 75.3041 32.3173C75.6253 32.1797 75.9464 32.1338 76.3134 32.1338C76.5428 32.1338 76.7263 32.1338 76.9098 32.1797C77.0933 32.2255 77.2768 32.2714 77.4145 32.3173C77.5521 32.3632 77.6897 32.4549 77.8274 32.5467C77.965 32.6384 78.1026 32.7302 78.1944 32.8678L77.8274 33.2807C77.598 33.0972 77.3686 32.9137 77.1392 32.7761C76.9098 32.6384 76.5887 32.5926 76.2675 32.5926C75.9923 32.5926 75.7629 32.6384 75.5335 32.7302C75.3041 32.8219 75.1206 32.9596 74.9371 33.1431C74.7536 33.3266 74.616 33.556 74.5242 33.7854C74.4325 34.0148 74.3866 34.29 74.3866 34.5653C74.3866 34.8405 74.4325 35.1158 74.5242 35.3452C74.616 35.5746 74.7536 35.804 74.9371 35.9875C75.1206 36.171 75.3041 36.3086 75.5335 36.4004C75.7629 36.4921 76.0382 36.538 76.2675 36.538C76.5887 36.538 76.9098 36.4921 77.1392 36.3545C77.3686 36.2169 77.6439 36.0334 77.8733 35.8498L78.2403 36.2169C78.1026 36.3545 77.965 36.4463 77.8274 36.5839C77.6897 36.6756 77.5521 36.7674 77.3686 36.8591C77.231 36.9509 77.0475 36.9968 76.864 37.0427C76.7263 37.1803 76.4969 37.2262 76.2675 37.2262Z" fill="#222222"/>
<path d="M80.9014 32.2251H84.4798V32.7297H81.4978V34.4272H84.2045V34.9319H81.4978V36.6752H84.5257V37.1798H80.9014V32.2251Z" fill="#222222"/>
<path d="M92.7834 37.1806C92.3705 37.1806 92.0493 37.1347 91.6823 36.997C91.3612 36.8594 91.04 36.6759 90.7648 36.4006L91.1318 35.9877C91.407 36.2171 91.6364 36.4006 91.9117 36.4924C92.187 36.63 92.4622 36.6759 92.8292 36.6759C93.1504 36.6759 93.4257 36.5841 93.6092 36.4465C93.7927 36.3089 93.9303 36.0795 93.9303 35.8501C93.9303 35.7584 93.9303 35.6207 93.8844 35.529C93.8385 35.4372 93.7927 35.3455 93.7009 35.2996C93.6092 35.2078 93.4715 35.162 93.288 35.1161C93.1045 35.0702 92.921 34.9784 92.6457 34.9326C92.3705 34.8867 92.1411 34.7949 91.9117 34.7032C91.6823 34.6114 91.5447 34.5197 91.407 34.4279C91.2694 34.3362 91.1777 34.1985 91.0859 34.015C91.04 33.8774 90.9942 33.6939 90.9942 33.5104C90.9942 33.3269 91.04 33.1434 91.1318 32.9598C91.2235 32.7763 91.3153 32.6387 91.4529 32.5469C91.5906 32.4093 91.7741 32.3176 91.9576 32.2717C92.1411 32.2258 92.3705 32.1799 92.5999 32.1799C92.9669 32.1799 93.288 32.2258 93.5633 32.3176C93.8386 32.4093 94.1138 32.5469 94.3432 32.7763L94.0221 33.1892C93.7927 33.0057 93.5633 32.8681 93.3339 32.7763C93.1045 32.6846 92.8751 32.6387 92.5999 32.6387C92.2787 32.6387 92.0035 32.7305 91.8199 32.8681C91.6364 33.0057 91.5447 33.1892 91.5447 33.4186C91.5447 33.5562 91.5447 33.648 91.5906 33.7398C91.6364 33.8315 91.6823 33.9233 91.7741 34.015C91.8658 34.1068 92.0035 34.1527 92.187 34.2444C92.3705 34.2903 92.5999 34.382 92.8751 34.4279C93.4257 34.5656 93.8386 34.7032 94.0679 34.9326C94.3432 35.162 94.4808 35.4372 94.4808 35.8042C94.4808 36.0336 94.4349 36.2171 94.3432 36.3548C94.2514 36.5383 94.1597 36.6759 93.9762 36.8135C93.8385 36.9512 93.655 37.0429 93.4256 37.0888C93.288 37.1806 93.0586 37.1806 92.7834 37.1806Z" fill="#222222"/>
<path d="M99.5736 37.2262C99.2066 37.2262 98.8395 37.1803 98.5643 37.0427C98.2431 36.905 98.0137 36.7215 97.7844 36.4921C97.555 36.2627 97.3715 35.9875 97.2797 35.6663C97.1421 35.3452 97.0962 35.0241 97.0962 34.7029C97.0962 34.3818 97.1421 34.0606 97.2797 33.7395C97.4173 33.4184 97.555 33.1431 97.7844 32.9137C98.0137 32.6843 98.289 32.5008 98.5643 32.3632C98.8854 32.2255 99.2066 32.1338 99.5736 32.1338C99.9406 32.1338 100.308 32.1797 100.583 32.3173C100.904 32.4549 101.133 32.6384 101.363 32.8678C101.592 33.0972 101.776 33.3725 101.867 33.6936C102.005 34.0148 102.051 34.3359 102.051 34.657C102.051 34.9782 102.005 35.2993 101.867 35.6205C101.73 35.9416 101.592 36.2169 101.363 36.4463C101.133 36.6756 100.858 36.8591 100.583 36.9968C100.308 37.1344 99.9406 37.2262 99.5736 37.2262ZM99.6194 36.7215C99.8947 36.7215 100.17 36.6756 100.399 36.5839C100.629 36.4921 100.858 36.3545 100.996 36.171C101.179 35.9875 101.317 35.7581 101.409 35.5287C101.5 35.2993 101.546 35.0241 101.546 34.7488C101.546 34.4735 101.5 34.1983 101.409 33.9689C101.317 33.7395 101.179 33.5101 100.996 33.3266C100.812 33.1431 100.629 33.0055 100.399 32.8678C100.17 32.7761 99.8947 32.6843 99.6194 32.6843C99.3442 32.6843 99.0689 32.7302 98.8395 32.8219C98.6102 32.9137 98.3808 33.0513 98.2431 33.2348C98.0596 33.4184 97.922 33.6477 97.8302 33.8771C97.7385 34.1065 97.6926 34.3818 97.6926 34.657C97.6926 34.9323 97.7385 35.2076 97.8302 35.437C97.922 35.6663 98.0596 35.8957 98.2431 36.0792C98.4266 36.2627 98.6102 36.4004 98.8395 36.538C99.0689 36.6298 99.2983 36.7215 99.6194 36.7215Z" fill="#222222"/>
<path d="M104.941 32.2251H105.492V36.6293H108.244V37.134H104.895V32.2251H104.941Z" fill="#222222"/>
<path d="M112.969 37.2257C112.648 37.2257 112.373 37.1798 112.144 37.0881C111.914 36.9963 111.685 36.8587 111.501 36.6752C111.318 36.4917 111.18 36.2623 111.088 35.987C110.997 35.7118 110.951 35.3906 110.951 35.0695V32.2251H111.501V35.0695C111.501 35.62 111.639 36.0329 111.914 36.3082C112.189 36.5834 112.557 36.7211 113.015 36.7211C113.474 36.7211 113.841 36.5834 114.116 36.3082C114.392 36.0329 114.529 35.62 114.529 35.0695V32.2251H115.08V35.0236C115.08 35.3906 115.034 35.7118 114.942 35.987C114.85 36.2623 114.713 36.4917 114.529 36.6752C114.346 36.8587 114.116 36.9963 113.887 37.0881C113.566 37.1798 113.291 37.2257 112.969 37.2257Z" fill="#222222"/>
<path d="M119.347 32.7297H117.695V32.2251H121.549V32.7297H119.897V37.134H119.347V32.7297Z" fill="#222222"/>
<path d="M124.302 32.2251H124.852V37.134H124.302V32.2251Z" fill="#222222"/>
<path d="M130.311 37.2262C129.944 37.2262 129.577 37.1803 129.302 37.0427C128.981 36.905 128.751 36.7215 128.522 36.4921C128.293 36.2627 128.109 35.9875 128.017 35.6663C127.88 35.3452 127.834 35.0241 127.834 34.7029C127.834 34.3818 127.88 34.0606 128.017 33.7395C128.155 33.4184 128.293 33.1431 128.522 32.9137C128.751 32.6843 129.027 32.5008 129.302 32.3632C129.623 32.2255 129.944 32.1338 130.311 32.1338C130.678 32.1338 131.045 32.1797 131.32 32.3173C131.642 32.4549 131.871 32.6384 132.1 32.8678C132.33 33.0972 132.513 33.3725 132.605 33.6936C132.743 34.0148 132.788 34.3359 132.788 34.657C132.788 34.9782 132.743 35.2993 132.605 35.6205C132.467 35.9416 132.33 36.2169 132.1 36.4463C131.871 36.6756 131.596 36.8591 131.32 36.9968C130.999 37.1344 130.678 37.2262 130.311 37.2262ZM130.311 36.7215C130.586 36.7215 130.862 36.6756 131.091 36.5839C131.32 36.4921 131.55 36.3545 131.687 36.171C131.825 35.9875 132.009 35.7581 132.1 35.5287C132.192 35.2993 132.238 35.0241 132.238 34.7488C132.238 34.4735 132.192 34.1983 132.1 33.9689C132.009 33.7395 131.871 33.5101 131.687 33.3266C131.504 33.1431 131.32 33.0055 131.091 32.8678C130.862 32.7761 130.586 32.6843 130.311 32.6843C130.036 32.6843 129.761 32.7302 129.531 32.8219C129.302 32.9137 129.072 33.0513 128.935 33.2348C128.751 33.4184 128.614 33.6477 128.522 33.8771C128.43 34.1065 128.384 34.3818 128.384 34.657C128.384 34.9323 128.43 35.2076 128.522 35.437C128.614 35.6663 128.751 35.8957 128.935 36.0792C129.118 36.2627 129.302 36.4004 129.531 36.538C129.761 36.6298 130.036 36.7215 130.311 36.7215Z" fill="#222222"/>
<path d="M135.678 32.2251H136.183L139.302 36.1705V32.2251H139.853V37.134H139.394L136.229 33.0968V37.134H135.678V32.2251Z" fill="#222222"/>
</svg>
